<?xml version="1.0" encoding="UTF-8" standalone="no"?>
<!-- Created with Inkscape (http://www.inkscape.org/) -->

<svg
   xmlns:dc="http://purl.org/dc/elements/1.1/"
   xmlns:cc="http://creativecommons.org/ns#"
   xmlns:rdf="http://www.w3.org/1999/02/22-rdf-syntax-ns#"
   xmlns:svg="http://www.w3.org/2000/svg"
   xmlns="http://www.w3.org/2000/svg"
   xmlns:sodipodi="http://sodipodi.sourceforge.net/DTD/sodipodi-0.dtd"
   xmlns:inkscape="http://www.inkscape.org/namespaces/inkscape"
   width="896.14825"
   height="505.52994"
   id="svg4644"
   version="1.1"
   inkscape:version="0.48.4 r9939"
   sodipodi:docname="New document 16">
  <defs
     id="defs4646" />
  <sodipodi:namedview
     id="base"
     pagecolor="#ffffff"
     bordercolor="#666666"
     borderopacity="1.0"
     inkscape:pageopacity="0.0"
     inkscape:pageshadow="2"
     inkscape:zoom="0.18264007"
     inkscape:cx="155.39221"
     inkscape:cy="252.62828"
     inkscape:document-units="px"
     inkscape:current-layer="layer1"
     showgrid="false"
     fit-margin-top="0"
     fit-margin-left="0"
     fit-margin-right="0"
     fit-margin-bottom="0"
     inkscape:window-width="1280"
     inkscape:window-height="748"
     inkscape:window-x="0"
     inkscape:window-y="26"
     inkscape:window-maximized="1" />
  <metadata
     id="metadata4649">
    <rdf:RDF>
      <cc:Work
         rdf:about="">
        <dc:format>image/svg+xml</dc:format>
        <dc:type
           rdf:resource="http://purl.org/dc/dcmitype/StillImage" />
        <dc:title></dc:title>
      </cc:Work>
    </rdf:RDF>
  </metadata>
  <g
     inkscape:label="Layer 1"
     inkscape:groupmode="layer"
     id="layer1"
     transform="translate(45.308498,-255.01549)">
    <path
       style="fill:#ff0000;stroke:none"
       d="m 372.28125,293.34375 c -1.18074,0.0335 -2.5875,0.65 -3.8125,1.875 -1.8,1.8 -3.125,2.1125 -7.125,1.8125 -2.7,-0.1 -5.0875,0.0875 -5.1875,0.6875 -0.2,0.6 -3.1,0.9125 -6.5,0.8125 -5.2,-0.2 -6.40625,0.0875 -7.40625,1.6875 -1.5,2.3 -3.30625,2.7 -2.40625,0.5 0.7,-1.8 -3.39375,-2.10625 -5.09375,-0.40625 -0.7,0.7 -1.70625,0.825 -2.90625,0.125 -1.1,-0.5 -4.78125,-0.825 -8.28125,-0.625 -4.8,0.2 -6.89375,0.80625 -8.59375,2.40625 -1.2,1.1 -2.625,2.0125 -3.125,1.8125 -0.5,-0.1 -1.975,0.3875 -3.375,1.1875 -1.4,0.8 -6.1,1.7 -10.5,2 l -8,0.5 0,2.8125 c 0.1,2.8 -0.125,2.88125 -3.625,2.28125 -3.4,-0.5 -3.675,-0.38125 -4.375,2.21875 -0.6,2.6 -0.725,2.5875 -2.125,0.6875 -1.1,-1.5 -1.7875,-1.70625 -3.1875,-0.90625 -0.9,0.6 -1.6875,1.7 -1.6875,2.5 0,1.7 -3.4125,3.61875 -7.3125,4.21875 -3.7,0.5 -11.1875,3.68125 -11.1875,4.78125 0,0.5 -1.51875,1.6 -3.21875,2.5 -1.8,0.9 -3.48125,2.00625 -3.78125,2.40625 -0.3,0.4 -2.1,1.70625 -4,2.90625 -1.9,1.1 -3.41875,2.29375 -3.21875,2.59375 0.7,1.6 -0.18125,2.49375 -3.28125,3.09375 -1.9,0.3 -4.5125,1.7 -5.8125,3 -1.2,1.3 -3.0875,2.40625 -4.1875,2.40625 -1.1,0 -3.10625,1.2 -4.40625,2.5 -1.3,1.4 -3.09375,2.5 -4.09375,2.5 -1,0 -2.325,0.69375 -3.125,1.59375 -0.7,0.9 -2.99375,2.325 -5.09375,3.125 -2.1,0.8 -3.78125,2.08125 -3.78125,2.78125 0,0.7 -0.925,1.5125 -2.125,1.8125 -1.1,0.3 -2.49375,1.9 -3.09375,3.5 -0.6,1.6 -2.2875,3.39375 -3.6875,4.09375 -5.4,2.5 -7.1125,3.6 -6.8125,4.5 0.4,1.1 -7.9875,7.09375 -11.1875,8.09375 -1.3,0.4 -1.70625,1.2 -1.40625,2.5 0.4,1.5 0,2 -1.5,2 -1.2,0 -2.70625,0.90625 -3.40625,1.90625 -0.7,1 -3.2875,2.8875 -5.6875,4.1875 -2.9,1.5 -4.81875,3.325 -5.71875,5.625 -1.2,2.8 -1.88125,3.28125 -4.78125,3.28125 -2.2,0 -4.50625,0.9 -6.40625,2.5 -1.7,1.4 -3.7875,2.5 -4.6875,2.5 -1.4,0 -1.61875,0.60625 -1.21875,2.90625 0.6,3 -1.50625,5.2 -2.90625,3 -0.8,-1.3 -7.58125,-0.3875 -10.28125,1.3125 -2.2,1.4 -3.4,4.475 -2,5.375 2.1,1.2 0.5875,2.11875 -3.8125,2.21875 -11.9,0.2 -12.79375,0.50625 -13.09375,3.40625 -0.2,1.6 -0.80625,2.78125 -1.40625,2.78125 -0.6,0 -2.10625,1.21875 -3.40625,2.71875 -1.3,1.5 -3.39375,2.78125 -4.59375,2.78125 -1.3,0.1 -3.29375,0.70625 -4.59375,1.40625 -2.099998,1.1 -2.0875,1.29375 -0.6875,4.09375 0.9,1.7 1.38125,3.09375 1.28125,3.09375 -0.2,0.1 -4.69375,0.30625 -10.09375,0.40625 -6.5,0.1 -10.2,0.6 -11,1.5 -0.9,1 -0.90625,1.09375 0.09375,0.59375 0.6,-0.4 1.21875,-0.1875 1.21875,0.3125 l 0,1.8125 c 0,0.5 -0.31875,0.78125 -0.71875,0.78125 -0.5,0 -1.18125,0.29375 -1.78125,0.59375 -1,0.7 -11.4,2.30625 -15,2.40625 -1.3,0 -2.725,1.4125 -4.125,4.3125 -2.3,4.8 -7.89375,8.59375 -10.59375,7.09375 -1.3,-0.7 -2.5,-0.10625 -5,2.59375 l -3.28125,3.5 -4.3125,-1.5 c -2.4,-0.9 -4.8125,-1.3 -5.3125,-1 -1.8,1.2 -0.875,3.0125 2.125,4.3125 1.6,0.8 3,1.98125 3,2.78125 0,1.8 -5.9,1.925 -8.5,0.125 -3.1,-2.1 -6.5125,-2.725 -5.8125,-1.125 0.3,0.8 0.90625,1.5 1.40625,1.5 4.6,0.7 4.88125,1.4125 4.28125,9.8125 l -0.5,7.8125 3.5,0.6875 c 2.8,0.5 3.725,1.3 4.625,4 0.7,2.1 1.8875,3.6 3.1875,4 2.1,0.5 2.1125,0.59375 0.3125,2.59375 -2.8,3.1 -6.025,2.61875 -7.625,-1.28125 -1.3,-3.1 -1.48125,-3.625 -1.78125,-5.625 -0.5,-3.7 -11.39375,-10 -17.09375,-10 -5.5,0.1 -6.9125,0.70625 -6.3125,2.90625 0.3,1.1 0.90625,2 1.40625,2 0.5,0 0.90625,0.49375 0.90625,1.09375 0,0.5 -1.0125,0.91875 -2.3125,0.71875 -1.7,-0.2 -2.1875,0.19375 -2.1875,2.09375 0,2.1 0.8,2.5875 6.5,4.1875 3.5,0.9 6.7875,1.5125 7.1875,1.3125 0.3,-0.2 0.9125,-0.006 1.3125,0.59375 0.8,1.3 6.5,1.3 6.5,0 0,-0.6 0.5,-1 1,-1 0.6,0 1,0.9 1,2 0,1 0.7,2.3125 1.5,2.8125 0.9,0.4 1.675,2.09375 1.875,3.59375 0.4,3.8 2.8125,5.0875 6.8125,3.6875 4.3,-1.5 7.80625,-1.39375 8.40625,0.40625 0.4,0.8 1.58125,1.5 2.78125,1.5 2.2,0 4.625,1.7125 4.625,3.3125 0,1.1 -10.1,-0.10625 -11.5,-1.40625 -1.1,-1.1 -5.5,-1.1938 -5.5,-0.0937 0,1.2 5.58125,4.1875 7.78125,4.1875 2.9,0 3.7,1.81875 1,2.21875 -3.3,0.4 -3.3,3.0875 0,6.6875 2.3,2.6 3.69375,3.2125 7.09375,3.3125 3.9,0 5.40625,1.09375 2.90625,2.09375 -2.8,1 3.61875,2.1875 9.21875,1.6875 3.085805,-0.30689 5.627128,-0.24921 8.375,-1.0625 4.597508,-1.20987 8.474725,-1.44467 15.25,-0.71875 6.775276,0.72592 5.561647,-1.70441 4.59375,-3.15625 -0.967896,-1.45185 -3.391905,-2.91342 -4.84375,-2.1875 -1.451845,0.72592 -2.195526,-0.7196 -2.4375,-1.6875 -0.241974,-0.9679 0.987706,-1.68203 -4.09375,-4.34375 -5.081457,-2.66171 1.448086,-2.92862 4.59375,-1.71875 2.377712,0.9145 6.833292,1.41977 12,3.28125 0.03689,0.008 0.05522,0.0222 0.09375,0.0313 1.952344,0.45586 5.96875,1.7875 8.96875,3.0625 2.5,1 3.5875,1.0062 5.6875,-0.0937 2.7,-1.4 6.4875,-1.10625 8.1875,0.59375 0.5,0.5 2.71875,1 4.71875,1 2.8,0 4.29375,-0.60625 5.59375,-2.40625 1.4,-1.8 2.29375,-2.2 3.59375,-1.5 1,0.6 3.10625,0.40625 5.90625,-0.59375 2.4,-0.8 5.70625,-1.5 7.40625,-1.5 1.8,0 3.80625,-0.8 4.90625,-2 1,-1.1 3.075,-1.99375 4.875,-2.09375 2.9,0 2.90625,-0.10625 0.90625,-0.90625 -1.3,-0.5 -2.28125,-1.40625 -2.28125,-1.90625 0,-0.5 -0.9,-1.29375 -2,-1.59375 -1.1,-0.4 -3.31875,-1.79375 -4.71875,-3.09375 -1.8,-1.7 -3.40625,-2.3 -4.90625,-2 -1.6,0.4 -2.2875,0.0937 -2.6875,-1.40625 -0.3,-1.1 -1.2875,-2 -2.1875,-2 -0.9,0 -3.30625,-1.4 -5.40625,-3 -2.1,-1.7 -5.40625,-3.49375 -7.40625,-4.09375 -2.1,-0.5 -3.6875,-1.40625 -3.6875,-1.90625 0,-1.4 1.29375,-1.2 4.59375,0.5 1.6,0.8 3.8875,1.5 5.1875,1.5 1.2,0 2.21875,0.40625 2.21875,0.90625 0,0.5 1.68125,1.19375 3.78125,1.59375 2,0.4 4.21875,1.1 4.71875,1.5 0.6,0.5 3.68125,1.3125 6.78125,1.8125 4.3,0.7 6.4125,0.59375 8.3125,-0.40625 3.4,-1.8 3.40625,-1.8 3.40625,1.5 0,3.6 1.3,4.5875 7.5,5.6875 7.6,1.3 13.7,1.2125 17,-0.1875 5.2,-2.1 6.4,-2.30625 7,-1.40625 1,1.7 4.475,1.2 3.875,-0.5 -0.5,-1.1 0.1,-1.5 2,-1.5 1.5,0 2.91875,-0.7 3.21875,-1.5 0.3,-0.8 1.49375,-1.69375 2.59375,-2.09375 3.4,-1 -0.19375,-3.49375 -5.09375,-3.59375 -2.7,0 -4.5125,-0.60625 -4.8125,-1.40625 -0.3,-0.8 -0.9,-1.40625 -1.5,-1.40625 -0.5,0 -2.48125,-1.19375 -4.28125,-2.59375 -3.2,-2.4 -3.6,-2.5 -5,-1 -2.3,2.3 -3.5,1.99375 -3.5,-0.90625 0,-2.6 -1.60625,-4.6 -6.40625,-8 -1.6,-1.1 -3.4,-2.49375 -4,-3.09375 -0.7,-0.7 -2.09375,-1.3 -3.09375,-1.5 -1,-0.2 -2.01875,-0.9 -2.21875,-1.5 -0.4,-1.3 5.4125,-0.6125 6.3125,0.6875 0.3,0.5 1.60625,0.90625 2.90625,0.90625 1.3,0 2.575,0.40625 2.875,0.90625 0.3,0.4 1.925,1.10625 3.625,1.40625 2.1,0.5 2.775,1.0875 2.375,2.1875 -0.5,1.1 0.10625,1.5 2.40625,1.5 1.6,0 3.51875,0.7 4.21875,1.5 0.7,0.8 2.48125,1.41875 4.28125,1.21875 1.7,-0.1 3.20625,0.3 3.40625,1 0.3,0.8 -0.49375,1.28125 -2.09375,1.28125 -1.4,0 -2.59375,0.40625 -2.59375,0.90625 0,1.2 3.0875,2.4875 5.1875,2.1875 1,-0.1 4.80625,1.2 8.40625,3 8.8,4.1 12.9875,3.7 20.6875,-2 6.7,-4.9 8.30625,-7.4 6.90625,-10.5 -0.6,-1.4 -0.5938,-2.88125 -0.0937,-3.78125 1,-1.9 -0.40625,-3.3 -2.40625,-2.5 -0.7,0.3 -2.1,-0.1125 -3,-0.8125 -1.5,-1.1 -1.5875,-1.4 -0.1875,-2.5 1.2,-1 1.8,-1 3,0 1.3,1 1.88125,0.99375 3.28125,-0.40625 1,-0.9 2.39375,-1.59375 3.09375,-1.59375 0.7,0 0.925,-0.49375 0.625,-1.09375 -0.4,-0.5 -1.7125,-0.9125 -2.8125,-0.8125 -5.4,0.4 -8.1,-0.0875 -7,-1.1875 0.7,-0.7 2.2,-1.3 3.5,-1.5 6.1,-0.9 6.3125,-1 6.8125,-5 0.5,-4.1 0.4,-4.0125 8,-4.3125 5.4,-0.2 6.4,-1.1875 4.5,-4.6875 -1.7,-3.3 -2,-9.40625 -0.5,-9.40625 0.6,0 1,0.7 1,1.5 0,0.8 0.7,1.5 1.5,1.5 0.8,0 1.5,0.4 1.5,1 0,0.5 1.19375,1 2.59375,1 1.4,0 3.7875,0.60625 5.1875,1.40625 1.5,0.7 4.3125,2.19375 6.3125,3.09375 2.8,1.4 3.7875,2.59375 4.6875,6.09375 0.9,3.2 1.71875,4.4 3.21875,4.5 1.1,0.1 2.4875,0.2125 3.1875,0.3125 2.2,0.2 1.89375,-2.0875 -0.40625,-2.6875 -2.1,-0.6 -2.08125,-0.71875 -0.28125,-2.71875 1.6,-1.8 1.5938,-2 0.0937,-2 -1.7,0 -5.4125,-6.49375 -4.3125,-7.59375 0.3,-0.4 2.69375,-0.10625 5.09375,0.59375 2.5,0.7 5.51875,1.01875 6.71875,0.71875 3.7,-1 11,1.5 12,4 0.5,1.3 1.60625,2.28125 2.40625,2.28125 0.9,0 1.3,0.49375 1,1.09375 -0.4,0.6 -1.3,0.8 -2,0.5 -0.8,-0.3 -2.5125,0.4 -3.8125,1.5 -1.4,1 -3.19375,1.90625 -4.09375,1.90625 -0.9,0 -1.59375,0.69375 -1.59375,1.59375 0,0.8 -0.4,1.20625 -1,0.90625 -1.9,-1.2 -1.01875,0.6 1.78125,3.5 2.5,2.7 3.3,2.89375 10.5,3.09375 4.7,0.1 8.2,-0.175 8.5,-0.875 0.4,-0.5 2.4,-1.31875 4.5,-1.71875 3,-0.6 3.71875,-1.10625 3.21875,-2.40625 -1.3,-3.1 -0.91875,-3.475 3.78125,-4.375 5.6,-1.1 7.40625,-0.11875 5.40625,2.78125 -1,1.2 -1.9125,1.50625 -2.8125,0.90625 -2.4,-1.5 -3.49375,-1.2125 -3.59375,0.6875 -0.1,1.1 0.2125,1.90625 0.8125,1.90625 0.5,0 0.90625,0.4 0.90625,1 0,0.5 -2.00625,1 -4.40625,1 -6.3,0 -6.60625,1.6125 -0.40625,2.3125 3.7,0.5 5.8875,0.2 8.1875,-1 6,-3.1 6.6125,-3.3125 9.8125,-3.3125 2.9,0 3.3,-0.39375 3.5,-2.59375 0,-1.5 0.70625,-3.7 1.40625,-5 1,-1.9 0.9062,-2.6 -0.0937,-4 -0.8,-0.8 -1.525,-3.6875 -1.625,-6.1875 -0.3,-6.4 -0.68125,-8 -2.78125,-9.5 -1.6,-1.1 -1.11875,-1.3125 3.28125,-1.3125 2.8,0 5.125,0.20625 5.125,0.40625 0,0.2 -0.7,0.98125 -1.5,1.78125 -1.7,1.8 -2,5.40625 -0.5,5.40625 0.6,0 0.98125,0.61875 0.78125,1.21875 -0.1,0.7 0.3,2.29375 1,3.59375 0.7,1.2 1.19375,2.8 1.09375,3.5 -0.4,3 0.225,4.5 2.125,5 1.2,0.3 2,1.4 2,2.5 0,1.2 0.38125,2.29375 0.78125,2.59375 1.6,1 14.49375,1.4875 16.09375,0.6875 0.9,-0.5 5.5125,-1.2 10.3125,-1.5 4.8,-0.3 9.29375,-0.8875 10.09375,-1.1875 0.8,-0.3 1.7,0.10625 2,0.90625 0.5,1.5 3.8125,2.08125 15.8125,3.28125 4.3,0.4 6.88125,0.2 7.28125,-0.5 0.5,-0.7 1.51875,-0.6938 3.21875,-0.0937 1.4,0.6 5,1 8,1 5.7,0 6.90625,-1.30625 3.90625,-4.40625 -0.8,-0.8 -1.20625,-2.2 -0.90625,-3 0.5,-1.2 0.006,-1.59375 -2.09375,-1.59375 -2.1,0 -2.5,0.40625 -2,1.90625 0.4,1.3 0,2.00625 -1.5,2.40625 -2.4,0.6 -3.6,-0.91875 -2,-2.71875 0.8,-1.1 0.375,-1.7 -2.125,-3 -1.8,-0.9 -3.79375,-1.59375 -4.59375,-1.59375 -0.7,0 -1.28125,-0.7 -1.28125,-1.5 0,-2.5 6.58125,-2 7.28125,0.5 0.3,1.3 1.40625,2 2.90625,2 1.2,0 3.3875,0.31875 4.6875,0.71875 2,0.5 2.3125,0.28125 1.8125,-1.21875 -0.5,-1.1 0.006,-2.39375 1.40625,-3.59375 1.2,-1.1 1.9,-1.90625 1.5,-1.90625 -0.4,0 -0.0188,-0.9875 0.78125,-2.1875 0.9,-1.2 1.625,-3 1.625,-4 0,-1 0.58125,-1.80625 1.28125,-1.90625 1,0 1,-0.19375 0,-0.59375 -1.5,-0.6 -1.68125,-3.3125 -0.28125,-3.3125 0.6,0 1,-0.9 1,-2 0,-1.1 -0.4,-2 -1,-2 -1.8,0 -1,-1.78125 1,-2.28125 1.2,-0.3 2,-1.425 2,-2.625 0,-1.2 0.375,-2.09375 0.875,-2.09375 0.5,0 1.7,-0.29375 2.5,-0.59375 1.4,-0.6 1.4062,-0.29375 -0.0937,2.40625 -1,1.7 -1.48125,3.29375 -1.28125,3.59375 0.3,0.3 2.68125,0.5875 5.28125,0.6875 2.7,0.2 5.0125,0.625 5.3125,1.125 0.7,1.2 10.20625,0.98125 10.90625,-0.21875 0.3,-0.6 -0.30625,-1 -1.40625,-1 -2.7,0 -2.7,-1.79375 0,-4.59375 l 2,-2.1875 -2.59375,-0.625 c -1.4,-0.4 -2.3,-1.09375 -2,-1.59375 0.8,-1.2 1.675,-1.2 4.875,0 1.8,0.7 2.40625,1.39375 1.90625,2.59375 -0.5,1.4 -0.2,1.61875 1.5,1.21875 1.3,-0.4 2.21875,-0.1 2.21875,0.5 0,0.6 1.18125,2.10625 2.78125,3.40625 2,1.7 2.3,2.18125 1,2.28125 -0.9,0 -1.79375,-0.58125 -2.09375,-1.28125 -0.3,-0.9 -0.9125,-0.925 -2.3125,-0.125 -1.4,0.9 -1.79375,2.10625 -1.59375,4.90625 0.3,3.3 0.2,3.7 -1.5,3 -1,-0.4 -3.78125,-0.98125 -6.28125,-1.28125 -2.5,-0.2 -4.825,-0.90625 -5.125,-1.40625 -0.9,-1.4 -4.19375,-1.69375 -5.59375,-0.59375 -0.9,0.7 -1.8,0.3875 -3,-0.8125 -1.7,-1.7 -1.79375,-1.7125 -2.09375,0.1875 -0.2,1 -1.10625,2.425 -1.90625,3.125 -0.9,0.7 -1.3,1.8875 -1,2.6875 0.4,0.9 0.21875,1.79375 -0.28125,2.09375 -1.9,1.2 -1.01875,2.5 1.78125,2.5 1.5,0 3.41875,0.4 4.21875,1 1.8,1.1 4,-0.49375 4,-3.09375 0,-1.5 0.675,-1.90625 3.375,-1.90625 3.6,0 9.01875,2.3 9.21875,4 0.1,0.5 0.18125,1.20625 0.28125,1.40625 0,0.3 1.5125,0 3.3125,-0.5 2.1,-0.5 3.5875,-0.5062 4.1875,0.0937 0.7,0.7 0.3125,1 -1.1875,1 -1.2,0 -2.10625,0.61875 -1.90625,1.21875 0.1,0.8 -1.18125,1.39375 -3.28125,1.59375 -1.9,0.2 -3.90625,0.78125 -4.40625,1.28125 -0.6,0.5 -2.21875,0.90625 -3.71875,0.90625 -1.5,0 -2.88125,0.69375 -3.28125,1.59375 -0.5,1.2 -1,1.4 -2,0.5 -0.7,-0.6 -1.50625,-0.8 -1.90625,-0.5 -0.3,0.3 -0.99375,-0.275 -1.59375,-1.375 -0.9,-1.7 -2.0125,-2.00625 -6.3125,-1.90625 l -5.28125,0.1875 -0.3125,3.8125 -0.3125,3.6875 4,0 c 3,0 4.125,0.4 4.125,1.5 0,1.7 -3.5,2.1 -4.5,0.5 -1,-1.6 -3.20625,-1.18125 -3.90625,0.71875 -0.3,1 -0.91875,2.39375 -1.21875,3.09375 -0.3,0.7 -0.1875,1.19375 0.3125,1.09375 0.4,-0.1 1.0125,-0.006 1.3125,0.0937 0.3,0.1 2.3,0.39375 4.5,0.59375 6.2,0.6 8.39375,1.01875 9.09375,1.71875 0.4,0.4 1.5,0.6875 2.5,0.6875 0.9,0 3.2,1.39375 5,3.09375 l 3.28125,3.125 1,-2.3125 c 0.6,-1.3 1.125,-2.4875 1.125,-2.6875 0.1,-0.1 1.7875,0.3875 3.6875,1.1875 4.9,2.1 10.8125,0.40625 10.8125,-3.09375 0,-1.8 -0.60625,-2.3125 -2.40625,-2.3125 -2,0 -2.3125,-0.38125 -1.8125,-2.78125 0.3,-1.5 1.30625,-3.3 2.40625,-4 1,-0.7 1.8125,-1.925 1.8125,-2.625 0,-0.8 0.99375,-1.08125 3.09375,-0.78125 2.4,0.4 3.09375,-0.0188 3.59375,-1.71875 0.5,-2.1 2.3125,-3 2.3125,-1 0,1.6 7.19375,0.60625 8.09375,-1.09375 0.4,-0.8 1.10625,-2.4 1.40625,-3.5 0.6,-1.6 0.78125,-1.7 1.28125,-0.5 0.6,1.9 2.30625,3.00625 3.40625,2.40625 1.4,-0.9 0.89375,-3.6 -0.90625,-5 -1.7,-1.3 -1.7,-1.30625 0,-1.40625 0.9,0 1.71875,0.4 1.71875,1 0,2 2.1,1 3,-1.5 0.9,-2.3 1.475,-3.1875 5.875,-8.1875 1.1,-1.1 2.1125,-2.9 2.3125,-4 0.2,-1.2 1.5125,-2.0125 3.8125,-2.3125 2.8,-0.4 3.58125,-1 3.78125,-3 0.4,-2.7 2.21875,-5.29375 2.21875,-3.09375 0,0.7 0.4875,0.9 1.1875,0.5 0.8,-0.5 0.9125,-0.2125 0.3125,1.1875 -0.4,1 -1.0125,3.525 -1.3125,5.625 -0.3,2.5 -1.0125,3.79375 -2.3125,4.09375 -1.4,0.4 -1.675,1.19375 -1.375,3.59375 0.2,1.8 -0.025,2.89375 -0.625,2.59375 -1.2,-0.8 -4.875,-1.5 -4.875,-1 0,1.6 2.59375,5.5 3.59375,5.5 0.6,0 1.38125,0.7 1.78125,1.5 0.3,0.8 1.525,1.5 2.625,1.5 1.1,0 2,0.4 2,1 0,0.5 0.7,1 1.5,1 0.8,0 1.5,0.69375 1.5,1.59375 0,1 -0.51875,1.21875 -1.21875,0.71875 -0.7,-0.4 -2.3,-0.6 -3.5,-0.5 -1.2,0.2 -2.58125,-0.5 -3.28125,-1.5 -0.9,-1.5 -1,-1.1 -0.5,2 0.5,2.8 0.2,3.88125 -1,4.28125 -1.7,0.7 -2.00625,4.00625 -0.40625,4.90625 0.5,0.4 2.68125,-0.50625 4.78125,-1.90625 2,-1.4 4.81875,-2.59375 6.21875,-2.59375 2.9,0 4.90625,-1.6875 4.90625,-4.1875 0,-1.3 -0.825,-1.8125 -2.625,-1.8125 -3,0 -2.2875,-1.69375 1.3125,-3.09375 2.9,-1.1 9.4875,1.5 8.6875,3.5 -0.7,1.9 3.825,5.69375 5.625,4.59375 1.1,-0.7 1.2,-1.1 0,-2.5 -0.7,-0.9 -0.90625,-1.50625 -0.40625,-1.40625 4.3,0.8 8.00625,-2.1875 6.40625,-5.1875 -0.9,-1.5 -0.70625,-2.09375 0.59375,-2.59375 1.6,-0.6 3.68125,1.50625 2.78125,2.90625 -0.3,0.4 0.4,0.78125 1.5,0.78125 2.8,0 3.71875,2.01875 1.21875,2.71875 -1.2,0.3 -2.09375,1.175 -2.09375,1.875 0,0.8 -1.01875,1.90625 -2.21875,2.40625 -2,0.9 -1.88125,1.00625 1.21875,0.90625 5.3,-0.1 5.475,-0.006 3.375,1.59375 -1,0.8 -2.9875,1.5 -4.1875,1.5 -1.5,0 -2.60625,0.7 -2.90625,2 -0.4,1.3 -1.40625,2 -2.90625,2 -2.7,0 -4.375,2.8 -2.375,4 0.9,0.6 0.8,1.01875 -0.5,1.71875 -1,0.6 -1.3125,1.29375 -0.8125,1.59375 0.6,0.4 1.8125,-0.2125 2.8125,-1.3125 1,-1.1 2.4,-2 3,-2 0.7,0 1.88125,-0.98125 2.78125,-2.28125 1.4,-2.1 1.50625,-2.1 3.40625,-0.5 2.3,2.1 8.69375,2.5 8.09375,0.5 -0.3,-0.6 -1.39375,-1.3 -2.59375,-1.5 -2.7,-0.4 -2.9125,-2.21875 -0.3125,-2.21875 1.1,0 2.325,-0.5 2.625,-1 0.3,-0.6 2.39375,-1 4.59375,-1 2.9,0 4.6875,-0.7 6.6875,-2.5 1.5,-1.4 3.41875,-2.5 4.21875,-2.5 1.3,0 4.58125,-3.7 4.28125,-5 0,-0.3 -0.2875,-1.9 -0.6875,-3.5 -0.6,-2.7 -0.50625,-2.8 0.59375,-1 1.9,3 5.2875,2.9062 6.6875,-0.0937 0.6,-1.4 1.625,-2.20625 2.125,-1.90625 0.6,0.3 1,0.0188 1,-0.78125 0,-2 2.675,-2.925 3.375,-1.125 0.3,0.8 0.0125,1.40625 -0.6875,1.40625 -1.6,0 -4.6,5.1125 -4,6.8125 0.3,0.8 -1.09375,2.88125 -3.09375,4.78125 -2,1.9 -3.59375,3.8125 -3.59375,4.3125 0,0.5 -0.925,1.4875 -2.125,2.1875 -1.9,1.3 -1.8875,1.7125 -0.6875,4.3125 1,2.3 1,3.00625 0,3.40625 -0.6,0.2 -1.1875,1.1875 -1.1875,2.1875 0,1 -0.7,2.00625 -1.5,2.40625 -2.2,0.8 -1.925,2.59375 0.375,2.59375 2.7,0 3.4,1.49375 1.5,3.09375 -1.3,1 -1.675,1 -2.375,0 -0.4,-0.8 -1.90625,-1.375 -3.40625,-1.375 -2.7,0 -3.5125,-1.2 -1.3125,-2 0.6,-0.3 -0.29375,-0.625 -2.09375,-0.625 -1.8,-0.1 -3.1125,0.31875 -2.8125,0.71875 0.3,0.5 -1.09375,1.59375 -3.09375,2.59375 l -3.59375,1.6875 3.59375,1.8125 c 2,1 4.7,1.60625 6,1.40625 1.6,-0.3 2.6,0.0937 3,1.09375 0.4,1 0.11875,1.59375 -0.78125,1.59375 -0.8,0 -2.225,1.19375 -3.125,2.59375 -1.1,1.6 -2.375,2.425 -3.375,2.125 -1,-0.2 -2.50625,0 -3.40625,0.5 -1.3,0.7 -2.1,0.48125 -3,-0.71875 -0.8,-1.1 -2.9125,-1.80625 -6.3125,-1.90625 -5.7,-0.3 -9.29375,1 -5.59375,2 1.3,0.4 1.99375,1.10625 1.59375,1.90625 -0.3,1 0.6125,1.4125 3.8125,1.3125 2.9,0 4.49375,0.49375 5.09375,1.59375 0.7,1.2 1.2875,1.3875 2.1875,0.6875 1.6,-1.3 5.925,-0.9875 4.625,0.3125 -0.6,0.6 -1,2.0125 -1,3.3125 0,3.6 6.8,6.4875 17,7.1875 7.8,0.6 8.48125,0.8125 8.78125,2.8125 0.2,1.3 1.1,2.275 2,2.375 0.9,0 5.31875,0.11875 9.71875,0.21875 7.1,0.2 7.975,0.3875 8.375,2.1875 0.2,1.1 1.1,2.51875 2,3.21875 1.4,1.1 1.1125,1.18125 -1.6875,1.28125 -2.1,0 -3.19375,-0.48125 -3.09375,-1.28125 0.1,-0.6 0.1,-1.71875 0,-2.21875 -0.1,-1.4 -9.09375,-1.18125 -11.59375,0.21875 -1.8,1 -1.6,1.18125 1.5,1.78125 2,0.3 4.6,1.49375 6,2.59375 l 2.5,2 -4.625,-0.59375 c -3.5,-0.4 -4.975,-0.1 -5.875,1 -1,1.2 -1.01875,1.91875 -0.21875,2.71875 1.7,1.7 1.51875,2.29375 -1.28125,3.59375 -1.5,0.7 -2.5,1.9875 -2.5,3.1875 0,1.1 -0.525,2 -1.125,2 -0.6,0 -2.975,1.3 -5.375,3 -2.4,1.6 -4.71875,3 -5.21875,3 -0.5,0 -1.59375,0.9 -2.59375,2 -0.9,1.1 -2.4125,2 -3.3125,2 -1.1,0 -1.4875,0.6125 -1.1875,1.8125 0.4,1.3 -0.0937,1.80625 -1.59375,1.90625 -6.3,0.2 -14.4125,1.575 -16.3125,2.875 -1.2,0.8 -3.09375,1.40625 -4.09375,1.40625 -1,0 -2.7125,0.8125 -3.8125,1.8125 -2.7,2.6 -6.39375,3.39375 -7.09375,1.59375 -0.8,-2.1 -8.58125,-1.80625 -12.78125,0.59375 -2,1.1 -4.60625,2 -5.90625,2 -4.4,0 -8.60625,1.2125 -7.90625,2.3125 0.4,0.6 -0.006,0.80625 -0.90625,0.40625 -0.9,-0.3 -1.88125,-0.3062 -2.28125,0.0937 -0.3,0.4 -2.1125,0.68125 -3.8125,0.78125 -1.8,0.1 -5.80625,0.50625 -8.90625,0.90625 -3.5,0.5 -6.8,0.41875 -8.5,-0.28125 -1.5,-0.5 -3.68125,-1.4125 -4.78125,-1.8125 -1.1,-0.4 -3.30625,-0.89375 -4.90625,-1.09375 -1.6,-0.3 -3.8,-1.1125 -5,-1.8125 -2.3,-1.5 -16.71875,-3.40625 -26.21875,-3.40625 -4.4,0 -6.6,0.4 -7.5,1.5 -1.1,1.4 -1.38125,1.325 -2.78125,-0.375 -1.7,-2.2 -10.80625,-3.70625 -11.40625,-1.90625 -0.2,0.6 -1.10625,0.58125 -2.40625,-0.21875 -3.5,-1.8 -9.68125,-1.39375 -11.78125,0.90625 -1,1.1 -2.50625,2.00625 -3.40625,1.90625 -0.9,0 -1.10625,-0.3 -0.40625,-0.5 1.5,-0.6 0.50625,-3.40625 -1.09375,-3.40625 -0.7,0 -1.80625,-1.10625 -2.40625,-2.40625 -0.8,-1.7 -2.4125,-2.69375 -6.3125,-3.59375 -3.9,-1 -5.3875,-0.9938 -5.6875,-0.0937 -0.4,1.2 -4.09375,0.6 -8.09375,-1.5 -1.4,-0.8 -3.31875,-1.40625 -4.21875,-1.40625 -0.9,0 -1.88125,-0.98125 -2.28125,-2.28125 -0.6,-2.5 -4.71875,-4.71875 -8.71875,-4.71875 -1.5,0 -3.075,-0.5 -3.375,-1 -1,-1.6 -2.5,-0.1 -2.5,2.5 0,1.4 -0.80625,2.9 -1.90625,3.5 -3.3,1.7 -4.41875,1.2 -3.71875,-1.5 0.4,-1.7 0.2125,-2.5 -0.6875,-2.5 -0.7,0 -2.39375,-1.19375 -3.59375,-2.59375 -2,-2.3 -2.80625,-2.5 -6.40625,-2 -2.3,0.3 -4.8875,0.6 -5.6875,0.5 -0.8,0 -4.6,0.0875 -8.5,0.1875 -14.4,0.5 -22.625,0.21875 -23.625,-0.78125 -0.7,-0.7 -2.1875,-0.81875 -4.1875,-0.21875 -4.6,1.3 -6.6875,1.10625 -6.6875,-0.59375 0,-2 -2.7125,-1.9062 -3.8125,0.0937 -0.7,1.3 -1.09375,1.2 -2.59375,-1 -2,-3.1 -3.69375,-3.29375 -6.09375,-0.59375 -1.5,1.7 -2.6,2 -6,1.5 -3.3,-0.5 -4.40625,-0.29375 -5.90625,1.40625 -2.6,2.9 -3.59375,2.5875 -3.59375,-0.8125 0,-4.5 -1.01875,-6.09375 -3.71875,-6.09375 -1.3,0 -3.2,-0.69375 -4,-1.59375 -1.1,-1.1 -2.3875,-1.3125 -4.1875,-0.8125 -1.4,0.4 -5.2,0.8125 -8.5,0.8125 -5.1,0.1 -6.01875,0.4125 -6.71875,2.3125 -0.8,2.3 -5.18125,3.275 -6.28125,1.375 -0.3,-0.5 -2.19375,-1.2 -4.09375,-1.5 -1.9,-0.4 -6.3125,-1.9875 -9.8125,-3.6875 -4.3,-2.1 -7.39375,-2.8875 -10.09375,-2.6875 -2.7,0.2 -4.10625,-0.125 -4.40625,-1.125 -0.3,-1 0.1875,-1.275 2.1875,-0.875 2,0.4 2.60625,0.2 2.40625,-1 -0.2,-1 -1.70625,-1.60625 -4.40625,-1.90625 -3.1,-0.3 -4.475,0.0875 -5.875,1.6875 -1,1.1 -2.21875,2 -2.71875,2 -1.4,0 -0.89375,-2.1875 0.90625,-4.1875 1.5,-1.7 1.5125,-2.10625 0.3125,-2.90625 -1.7,-1.1 -10.00625,-0.2125 -11.40625,1.1875 -1.4,1.3 -4.40625,1.125 -4.90625,-0.375 -0.3,-0.9 -0.9125,-0.825 -2.3125,0.375 -1.8,1.6 -6.69375,2.9 -10.59375,3 -1,0 -1.98125,0.4 -2.28125,1 -0.4,0.5 -1.51875,0.90625 -2.71875,0.90625 -1.1,0 -3.1875,0.90625 -4.6875,1.90625 -1.5,1.1 -3.90625,2.29375 -5.40625,2.59375 -1.4,0.4 -2.8875,1.5 -3.1875,2.5 -0.4,1.3 -2.1125,2 -6.3125,2.5 -5.6,0.6 -14.1875,4.6 -14.1875,6.5 0,0.6 -0.81875,1 -1.71875,1 -2.4,0 -7.28125,5.0125 -7.28125,7.3125 0,1.30793 -0.93794,2.67335 -2.1875,3.59375 -0.68527,2.20366 -0.67103,4.03442 -0.0313,6.59375 1,3.4 0.81875,3.98125 -1.28125,5.78125 -1.3,1.1 -2.60625,2.7 -2.90625,3.5 -0.8,2.4 1.88125,5.31875 4.28125,4.71875 2.1,-0.6 3.0125,1.8 0.8125,2.5 -0.8,0.3 -0.7,1.08125 0.5,2.78125 0.9,1.4 1.6875,3.39375 1.6875,4.59375 0,2.3 4.6,6.80625 6,5.90625 0.32194,-0.19316 0.6778,-0.16533 1,0.0313 1.60681,-0.56353 2.125,0.4303 2.125,3.09375 0,4.2 1.98125,5.90625 6.28125,5.40625 2.8,-0.3 3.3,-0.11875 3,1.28125 -0.0202,0.0739 -0.0192,0.14826 -0.0313,0.21875 l 2.65625,0 c 0.47416,0.61284 1.46601,1.12868 2.875,1.53125 2.4,0.6 3.2125,1.275 2.8125,2.375 -0.3,0.9 0.0813,1.40625 1.28125,1.40625 1.2,0 2.1,1 2.5,2.5 0.4,1.7 1.31875,2.5 2.71875,2.5 1.5,0 1.9,0.49375 1.5,1.59375 -0.4,1 0.28125,1.8 2.28125,2.5 2.4,0.9 2.99375,1.7 3.59375,5.5 0.4,3.2 1.1125,4.40625 2.3125,4.40625 0.9,0 2.3,1.4 3,3 1.2,2.6 1.9125,3 5.3125,3 2.1,0 3.875,0.49375 3.875,1.09375 0,0.5 1.425,1.525 3.125,2.125 0.19031,0.0666 0.30207,0.15224 0.46875,0.21875 0.0946,-0.60738 0.2075,-1.0625 0.3125,-1.0625 1.5,0.1 3.025,1.8125 3.625,4.3125 0.4,1.5 1.5875,3.18125 2.6875,3.78125 1.3,0.7 1.8,1.7 1.5,3 -0.3,1.2 0.006,1.90625 0.90625,1.90625 1.6,0 2.90625,4.29375 1.90625,6.09375 -1.3,2 1.575,2.725 4.375,1.125 2.4,-1.3 3.10625,-1.325 5.90625,-0.125 1.9,0.8 3.21875,2.11875 3.21875,3.21875 0,1.1 0.9,3.00625 2,4.40625 1.1,1.4 2,2.075 2,1.375 0,-1.8 3.9875,-1.275 4.6875,0.625 0.8,2.3 5.2,6.28125 7,6.28125 0.7,0 1.3125,0.4 1.3125,1 0,0.5 0.575,1 1.375,1 0.7,0 1.60625,0.9 1.90625,2 0.4,1.5 1.00625,1.8125 2.40625,1.3125 1,-0.3 2.10625,-1.09375 2.40625,-1.59375 0.9,-1.2 4.2,-0.0125 3.5,1.1875 -0.3,0.5 0.3,1.9875 1.5,3.1875 1.4,1.7 2.2,2.025 2.5,1.125 0.7,-1.4 3.40625,-1.61875 3.40625,-0.21875 0,0.5 -0.7,1 -1.5,1 -0.8,0 -1.5,0.40625 -1.5,0.90625 0,1.5 2.59375,3.1 5.09375,3 3.3,-0.1 7.1,0.79375 10.5,2.59375 1.6,0.8 3.40625,1.5 3.90625,1.5 0.6,0 2.1,0.9 3.5,2 1.4,1.1 3.9,2 5.5,2 1.7,0 5.7,1.30625 9,2.90625 4.7,2.2 6.5,2.60625 8.5,1.90625 1.6,-0.6 2.58125,-0.6062 2.78125,0.0937 0.2,0.6 0.80625,1.09375 1.40625,1.09375 0.6,0 3.0875,1.50625 5.6875,3.40625 2.5,1.8 6.1125,3.69375 7.8125,4.09375 1.8,0.3 3.5125,1.09375 3.8125,1.59375 0.4,0.5 3.99375,0.90625 8.09375,0.90625 10.6,0 21.30625,1.89375 25.40625,4.59375 2.6,1.7 5.2,2.3 10,2.5 3.6,0.1 7.08125,0.61875 7.78125,1.21875 0.7,0.5 4.7,1.08125 9,1.28125 7,0.2 11.51875,0.90625 24.21875,3.40625 2.5,0.5 6.5,1.19375 9,1.59375 2.5,0.4 5.4,1.20625 6.5,1.90625 1.1,0.7 4.7,1.80625 8,2.40625 3.3,0.7 7.6,1.59375 9.5,2.09375 11.2,2.6 13.375,3 16.875,3 2.1,0 5.81875,-0.90625 8.21875,-1.90625 2.4,-1 7.60625,-2.19375 11.40625,-2.59375 3.9,-0.4 7.58125,-1.18125 8.28125,-1.78125 0.8,-0.6 3.1125,-1.00625 5.3125,-0.90625 2.1,0.2 4.89375,-0.41875 6.09375,-1.21875 2.2,-1.4 16.3125,-1.775 49.3125,-1.375 6.4,0 22.38125,-1.6125 26.28125,-2.8125 1.2,-0.3 3.0125,-1.99375 3.8125,-3.59375 1.2,-2.3 2.08125,-2.89375 4.28125,-2.59375 4.1,0.4 11.325,-3.11875 10.625,-5.21875 -0.4,-1.4 0.2875,-1.70625 4.6875,-1.90625 6,-0.3 6.2125,-0.375 6.3125,-3.375 0,-1.5 0.68125,-2.3 2.28125,-2.5 1.6,-0.2 2.21875,-1.01875 2.21875,-2.71875 0,-3.1 1.58125,-4.1 2.28125,-1.5 0.3,1.1 -0.10625,2.70625 -0.90625,3.40625 -0.8,0.8 -1.375,1.9 -1.375,2.5 0,2 3.575,1.0875 5.875,-1.3125 1.3,-1.3 3.81875,-2.7 5.71875,-3 1.9,-0.4 3.40625,-1.09375 3.40625,-1.59375 0,-0.6 0.9,-1 2,-1 2.3,0 7,-2 7,-3 0,-0.4 1.8,-1.3 4,-2 2.7,-0.9 4,-1.89375 4,-3.09375 0,-1 0.78125,-2.3125 1.78125,-2.8125 1.6,-1 1.6,-0.99375 0,-1.09375 -1,0 -1.78125,-0.49375 -1.78125,-1.09375 0,-0.6 0.9,-0.80625 2,-0.40625 1.2,0.4 2.675,0.19375 3.375,-0.40625 0.9,-0.7 2.2,-0.68125 4.5,0.21875 2.9,1.1 3.41875,0.9875 4.71875,-0.8125 0.8,-1.1 1.70625,-1.88125 1.90625,-1.78125 1.4,0.8 3.69375,0.0875 5.59375,-1.8125 1.1,-1.1 2.58125,-1.79375 3.28125,-1.59375 0.8,0.3 2.70625,-0.3125 4.40625,-1.3125 2.3,-1.4 3.3,-2.9875 4,-6.1875 0.9,-4 1.00625,-4.10625 1.90625,-1.90625 l 0.90625,2.40625 3.59375,-3.21875 c 2,-1.7 4.09375,-2.975 4.59375,-2.875 1.5,0.5 6.21875,-5.1125 6.21875,-7.3125 0,-1 0.28125,-2 0.78125,-2 0.4,-0.1 1.81875,-0.30625 3.21875,-0.40625 1.3,-0.1 2.58125,-0.80625 2.78125,-1.40625 0.2,-0.6 1.01875,-1.7 1.71875,-2.5 0.9,-0.9 0.975,-1.68125 0.375,-2.28125 -0.7,-0.7 0,-1.39375 2,-2.09375 1.7,-0.6 3.125,-1.625 3.125,-2.125 0,-0.6 1.775,-1.09375 3.875,-1.09375 3.4,0 4.1125,-0.4 5.3125,-3 0.7,-1.6 2.1,-3 3,-3 1.2,0 1.9125,-1.20625 2.3125,-4.40625 0.6,-3.8 1.19375,-4.6 3.59375,-5.5 2,-0.7 2.68125,-1.5 2.28125,-2.5 -0.4,-1.1 0,-1.59375 1.5,-1.59375 1.4,0 2.31875,-0.8 2.71875,-2.5 0.4,-1.5 1.3,-2.5 2.5,-2.5 1.2,0 1.58125,-0.50625 1.28125,-1.40625 -0.4,-1.1 0.4125,-1.775 2.8125,-2.375 2.1,-0.6 3.2875,-1.4 3.1875,-2.5 -0.1,-0.9 0.225,-1.51875 0.625,-1.21875 0.5,0.3 1.1,0.1 1.5,-0.5 0.4,-0.6 1,-0.8 1.5,-0.5 1.4,0.9 6,-3.60625 6,-5.90625 0,-1.2 0.7875,-3.19375 1.6875,-4.59375 1.2,-1.7 1.3,-2.48125 0.5,-2.78125 -2.2,-0.7 -1.2875,-3.1 0.8125,-2.5 2.4,0.6 5.08125,-2.31875 4.28125,-4.71875 -0.3,-0.8 -1.60625,-2.4 -2.90625,-3.5 -2.1,-1.8 -2.28125,-2.38125 -1.28125,-5.78125 0.7,-2.8 0.68125,-4.71875 -0.21875,-7.21875 -2,-5.5 -9.5,-9.90625 -12.5,-7.40625 -1.9,1.6 -3.59375,0.025 -3.59375,-3.375 0,-1.7 -0.8875,-2.9125 -2.6875,-3.8125 -1.4,-0.8 -2.9125,-1.80625 -3.3125,-2.40625 -0.4,-0.5 -0.78125,-0.5938 -0.78125,-0.0937 0,0.5 -0.60625,0.2875 -1.40625,-0.3125 -1.9,-1.6 -5.41875,-2.2 -6.21875,-1 -0.3,0.5 -1.89375,-0.19375 -3.59375,-1.59375 -1.6,-1.4 -3.60625,-2.5 -4.40625,-2.5 -1.6,0 -1.875,-1.6 -0.375,-2.5 0.6,-0.4 0.88125,-1.38125 0.78125,-2.28125 -0.2,-1.3 0.61875,-1.8 3.71875,-2 2.3,-0.2 4.68125,-1.2125 5.78125,-2.3125 1,-1 2.19375,-1.90625 2.59375,-1.90625 0.9,0 3.70625,3.11875 3.40625,3.71875 -0.9,1.6 -3.5,3.28125 -5,3.28125 -1,0 -2.48125,0.5 -3.28125,1 -1.2,0.8 -0.91875,1 1.28125,1 1.5,0 3.59375,-0.4875 4.59375,-1.1875 1.1,-0.6 2.61875,-0.8125 3.71875,-0.3125 1.1,0.4 4.60625,1.01875 7.90625,1.21875 3.3,0.3 6.69375,0.875 7.59375,1.375 0.9,0.4 3.6,0.51875 6,0.21875 5.3,-0.8 8.00625,-0.81875 13.90625,-0.21875 4.1,0.4 4.475,0.225 4.375,-1.875 -0.1,-2.6 0.81875,-2.825 2.71875,-0.625 1,1.3 0.98125,1.7 -0.21875,2.5 -0.9,0.7 0.525,0.9125 4.625,0.8125 3.3,-0.1 7.19375,0.2 8.59375,0.5 3,0.9 10.5875,-2.2875 10.1875,-4.1875 -0.2,-0.7 0.4125,-1.21875 1.3125,-1.21875 0.8,0 1.3,0.40625 1,0.90625 -0.3,0.5 1.0875,0 3.1875,-1 3,-1.6 3.7,-2.3875 3.5,-4.6875 l -0.28125,-2.71875 1.09375,2.5 c 0.8,1.9 1.20625,2.2 1.90625,1 0.5,-0.8 0.675,-1.69375 0.375,-2.09375 -0.2,-0.4 0.51875,-0.4875 1.71875,-0.1875 1.9,0.5 2.10625,0.2875 1.40625,-2.8125 -0.4,-1.8 -1.30625,-4.19375 -1.90625,-5.09375 -1.2,-2.1 0.3875,-3.8125 3.6875,-3.8125 0.9,0 1.71875,-0.49375 1.71875,-1.09375 0,-0.6 0.7,-1.7 1.5,-2.5 1.8,-1.8 1.0875,-3.7875 -1.8125,-5.1875 -2.2,-1 -2.20625,-1.025 0.59375,-2.125 l 2.8125,-1.09375 -2.09375,-2.6875 c -2.6,-3.3 -8.625,-5.61875 -11.125,-4.21875 -2.3,1.2 -6.79375,0.81875 -8.09375,-0.78125 -1,-1.3 -0.8875,-1.41875 1.3125,-1.71875 0.7,0 1.5,-1.08125 2,-2.28125 0.6,-1.8 0.29375,-2.30625 -2.40625,-3.40625 -1.8,-0.7 -4.09375,-2.09375 -5.09375,-3.09375 -1.1,-1 -3.01875,-1.8125 -4.21875,-1.8125 -1.3,0 -2.89375,-0.78125 -3.59375,-1.78125 -1.4,-2 -7.1875,-4.4 -8.1875,-3.5 -0.3,0.4 -1.49375,-0.21875 -2.59375,-1.21875 -1.3,-1.2 -2.7,-1.49375 -4.5,-1.09375 -1.5,0.4 -2.5,0.19375 -2.5,-0.40625 0,-0.6 -0.4,-0.8 -1,-0.5 -0.5,0.3 -1,-0.30625 -1,-1.40625 0,-1.1 -0.5,-2.29375 -1,-2.59375 -0.6,-0.4 -0.8,-1.09375 -0.5,-1.59375 0.4,-0.5 -0.70625,-1.6875 -2.40625,-2.6875 -1.7,-0.9 -3.09375,-2.21875 -3.09375,-2.71875 0,-1.2 -4.41875,-5.5 -5.71875,-5.5 -0.5,0 -1.59375,-0.9 -2.59375,-2 -0.9,-1.1 -2.5875,-2 -3.6875,-2 -1.1,0 -2.31875,-0.7 -2.71875,-1.5 -0.4,-1.1 -1.38125,-1.39375 -3.28125,-1.09375 -2.4,0.3 -2.90625,0 -3.40625,-2.5 -0.3,-1.6 -1.4125,-3.19375 -2.3125,-3.59375 -1,-0.4 -2.1,-1.09375 -2.5,-1.59375 -0.5,-0.9 -2.08125,-1.325 -6.78125,-1.625 -1.2,-0.1 -1.11875,-0.3875 0.28125,-1.1875 3.5,-2 1.49375,-3.2 -7.90625,-4.5 -3.7,-0.5 -5.575,2.09375 -2.375,3.09375 1.9,0.6 1.9,0.61875 0,2.71875 -1.5,1.6 -1.70625,2.5 -0.90625,4 0.8,1.6 0.50625,1.875 -2.09375,2.375 -1.7,0.4 -3,1.325 -3,2.125 0,0.8 -0.61875,1.3 -1.21875,1 -1.3,-0.4 -3.68125,1.99375 -3.78125,3.59375 0,0.5 0.775,0.5875 1.875,0.1875 1,-0.3 2.3,0.10625 3,0.90625 1,1.1 0.8,1.7 -1,3 -3,2.1 -5.1875,0.30625 -4.6875,-3.59375 0.6,-3.6 -1.29375,-5.3125 -4.09375,-3.8125 -1.4,0.7 -2.09375,0.7 -2.09375,0 0,-0.5 0.7,-1 1.5,-1 0.8,0 1.5,-0.7 1.5,-1.5 0,-0.8 -0.7,-1.5 -1.5,-1.5 -2,0 -1.91875,-1.19375 0.28125,-3.59375 1,-1.1 1.80625,-3.5875 1.90625,-6.1875 0.2,-3.4 -0.19375,-4.51875 -2.09375,-5.71875 -1.3,-0.9 -3.29375,-1.38125 -4.59375,-1.28125 -1.2,0.2 -2.51875,-0.3 -2.71875,-1 -0.3,-0.7 0.39375,-1.21875 1.59375,-1.21875 1.1,0 2.325,-0.5 2.625,-1 0.3,-0.6 1.18125,-1 1.78125,-1 0.7,0 0.61875,0.4 -0.28125,1 -1.3,0.8 -1.21875,1 0.28125,1 0.9,0 1.71875,-0.7 1.71875,-1.5 0,-0.8 -0.7,-1.5 -1.5,-1.5 -0.8,0 -1.5,-0.40625 -1.5,-0.90625 0,-0.5 -1.01875,-0.675 -2.21875,-0.375 l -2.28125,0.59375 2.28125,-2.21875 c 2.7,-2.7 2.71875,-3.29375 0.21875,-5.59375 -1.1,-1 -2,-2.3 -2,-3 0,-0.6 -1.225,-1.70625 -2.625,-2.40625 -1.7,-0.7 -2.4,-1.6875 -2,-2.6875 0.6,-1.5 -0.28125,-2.09375 -3.78125,-2.59375 -2.1,-0.3 -8.59375,-6.3125 -8.59375,-7.8125 0,-0.6 -0.9,-1 -2,-1 -1.7,0 -1.9,-0.3 -1,-2 0.8,-1.6 0.58125,-2.09375 -1.21875,-3.09375 -1.3,-0.7 -3.5875,-2.49375 -5.1875,-4.09375 -1.7,-1.5 -3.3125,-2.8125 -3.8125,-2.8125 -0.4,0 -1.3875,-1.6 -2.1875,-3.5 -0.8,-1.9 -2.10625,-3.5 -2.90625,-3.5 -0.7,0 -2.3,-1.4 -3.5,-3 -1.3,-1.7 -2.8875,-3 -3.6875,-3 -0.7,0 -1.9,-1.50625 -2.5,-3.40625 -0.7,-2.3 -1.925,-3.6 -3.625,-4 -1.6,-0.4 -2.9875,-1.79375 -3.6875,-3.59375 -0.6,-1.7 -1.50625,-3 -1.90625,-3 -0.4,0 -2.4875,-1.8 -4.6875,-4 -2.2,-2.2 -4.4,-4 -5,-4 -0.6,0 -1.09375,-0.98125 -1.09375,-2.28125 0,-1.4 -2.025,-4.425 -5.125,-7.625 -3.7,-3.8 -4.89375,-5.88125 -4.59375,-7.28125 0.4,-1.4 -0.006,-2.2 -1.40625,-2.5 -1.3,-0.4 -1.875,-1.40625 -1.875,-3.40625 0,-2.4 -0.51875,-2.90625 -3.21875,-3.40625 -3.9,-0.6 -7.78125,-0.30625 -7.78125,0.59375 0,1.3 -4.025,0.425 -6.125,-1.375 -1.5,-1.3 -1.9,-2.51875 -1.5,-4.21875 0.5,-2.1 0.2125,-2.4 -3.6875,-3 -2.3,-0.4 -4.59375,-0.98125 -5.09375,-1.28125 -2.5,-1.5 -14.1,-2.0125 -17.5,-0.8125 -2.1,0.7 -2.3125,0.5875 -1.8125,-1.3125 0.4,-1.6 0.11875,-2.09375 -1.28125,-2.09375 -3.1,0 -4.9125,1.09375 -4.3125,2.59375 0.6,1.6 -2.1875,2.00625 -3.1875,0.40625 -0.4,-0.6 -1.125,-0.8 -1.625,-0.5 -0.5,0.4 -1,-0.3875 -1,-1.6875 -0.3,-4.8 -0.4,-5.29375 -2,-5.59375 -0.9,-0.2 -2.3875,0.38125 -3.1875,1.28125 -1.3,1.2 -2.7875,1.40625 -6.6875,0.90625 -3.7,-0.5 -4.825,-1.0125 -4.125,-1.8125 1.1,-1.3 0.41875,-5.59375 -0.78125,-5.59375 -0.4,0 -1.39375,1.1 -2.09375,2.5 -1.3,2.4 -1.425,2.4125 -4.125,0.8125 -2.2,-1.3 -3.0875,-1.4 -4.1875,-0.5 -1.2,1 -1.59375,0.8875 -2.09375,-0.3125 -0.7,-1.8 -3.49375,-1.8875 -6.09375,-0.1875 -3.1,2 -9.4,3.8875 -10.5,3.1875 -0.5,-0.3 -1,0.10625 -1,0.90625 0,1.8 -4.01875,2.2 -5.71875,0.5 -1.2,-1.2 -4.68125,1.69375 -3.78125,3.09375 0.3,0.5 0.0937,1.10625 -0.40625,1.40625 -0.5,0.4 -1.19375,0.19375 -1.59375,-0.40625 -0.3,-0.5 -1.90625,-1 -3.40625,-1 -3.8,0 -6.09375,3.6 -6.09375,9.5 0,3.1 -0.40625,4.5 -1.40625,4.5 -1.1,0 -2.3,2.81875 -3,7.21875 -0.3,1.7 -1.7125,1.89375 -3.8125,0.59375 -2.2,-1.4 -11.08125,-3.10625 -15.28125,-2.90625 -1.1,0 -3.8,0.2125 -6,0.3125 l -4,0.1875 0,-4.8125 0,-4.78125 -5.21875,0.40625 c -5.1,0.3 -5.3,0.18125 -6,-2.71875 -0.4,-1.7 -0.78125,-3.58125 -0.78125,-4.28125 0,-1.9 -7.2125,-7.1125 -9.3125,-6.8125 -0.9,0.2 -1.9125,1.3875 -2.3125,2.6875 l -0.59375,2.40625 -1,-2.28125 c -0.5,-1.3 -1.98125,-2.925 -3.28125,-3.625 -1.4,-0.7 -2.41875,-1.775 -2.21875,-2.375 0.1,-0.7 -0.4,-1.21875 -1,-1.21875 -0.7,0 -2.3,-0.29375 -3.5,-0.59375 -1.7,-0.5 -2.28125,-0.19375 -2.28125,0.90625 0,1.9 -3.60625,1.19375 -4.40625,-0.90625 -0.3,-0.8 -1.9,-1.40625 -3.5,-1.40625 -1.6,0 -3.1125,-0.4875 -3.3125,-1.1875 -0.3,-0.7 -3.00625,-1.20625 -6.90625,-1.40625 -3.5,-0.1 -6.69375,-0.3125 -7.09375,-0.3125 -0.4,-0.1 -0.7,-1.08125 -0.5,-2.28125 0.16875,-1.8 -0.95066,-2.73057 -2.46875,-2.6875 z m 145.4375,6.4375 c -0.81562,-0.0516 -1.525,0.1375 -1.75,0.4375 -0.8,1.4 1.29375,2.21875 3.09375,1.21875 1.4,-0.8 1.4,-1 -0.5,-1.5 -0.275,-0.075 -0.57187,-0.13906 -0.84375,-0.15625 z m 14.15625,1.125 c -0.70312,0.0562 -0.90625,0.68125 -0.90625,2.03125 0,1.5 0.5,2.29375 1.5,2.09375 2.2,-0.5 2.38125,-3.5 0.28125,-4 -0.35,-0.1 -0.64062,-0.14375 -0.875,-0.125 z m 11.78125,5.34375 c -0.5125,0 -1.2375,0.31875 -2.1875,0.96875 -1.2,0.8 -1.11875,1 0.78125,1 1.2,0 2.21875,-0.5 2.21875,-1 0,-0.65 -0.3,-0.96875 -0.8125,-0.96875 z M 438.1875,333.21875 c 1.64648,-0.0811 4,0.59375 4.875,1.71875 1.6,2.2 1.70625,3.28125 0.40625,3.28125 -0.5,0 -1,-0.7 -1,-1.5 0,-1 -1,-1.5 -3,-1.5 -1.6,0 -3,-0.5 -3,-1 0,-0.6375 0.73086,-0.95137 1.71875,-1 z M 610,366.40625 c 0.7875,-0.0125 1.6,0.4125 1.75,1.3125 0.1,0.5 -0.6,1.1125 -1.5,1.3125 -1.1,0.2 -1.78125,-0.3125 -1.78125,-1.3125 0,-0.85 0.74375,-1.3 1.53125,-1.3125 z m -339.53125,2.8125 c 1.9,0 2.0875,0.31875 1.1875,1.21875 -0.9,0.9 -1.50625,0.9 -2.40625,0 -0.9,-0.9 -0.68125,-1.21875 1.21875,-1.21875 z m 300.9375,42.8125 c 0.34431,-0.1415 0.85625,0.6125 1.25,2.1875 0.1,0.9 -0.0937,1.8 -0.59375,2 -0.5,0.3 -1,-0.6875 -1,-2.1875 -0.0875,-1.225 0.076,-1.88994 0.34375,-2 z m -238.75,7.09375 2,2.3125 c 1.3,1.5 1.80625,3.18125 1.40625,4.78125 -0.4,2.1 -0.10625,2.61875 1.59375,2.71875 4.6,0.4 5,5.28125 0.5,5.28125 -2.6,0 -7.19375,-5.29375 -6.09375,-7.09375 0.3,-0.6 0.59375,-2.6 0.59375,-4.5 l 0,-3.5 z m 341.6875,0.5 c 1.1,0 1.7,0.4125 1.5,0.8125 -0.3,0.4 -1.4,0.78125 -2.5,0.78125 -1.1,0 -1.8,-0.38125 -1.5,-0.78125 0.2,-0.4 1.4,-0.8125 2.5,-0.8125 z m -222.21875,3.75 c 0.13125,-0.009 0.2875,0.0125 0.4375,0.0625 0.6,0.2 1,0.69375 1,1.09375 -0.1,0.4 -0.0937,1.3875 -0.0937,2.1875 0,1 -1,1.5 -3,1.5 -2.2,0 -2.80625,-0.4 -2.40625,-1.5 0.4,-0.8 1.2,-1.5 2,-1.5 0.8,0 1.40625,-0.49375 1.40625,-1.09375 0,-0.45 0.2625,-0.72188 0.65625,-0.75 z m 232.53125,2.84375 c -0.8,0 -0.5,1.1 1,3 2.4,3.2 3.30625,3.6125 4.40625,1.8125 0.5,-0.7 0.30625,-0.8125 -0.59375,-0.3125 -0.8,0.5 -1.1125,0.30625 -0.8125,-0.59375 0.5,-1.5 -1.9,-3.80625 -4,-3.90625 z m -293.25,1.125 c 0.7998,-0.1123 1.09375,0.71875 1.15625,2.59375 0.1,1.6 0.1,3.39375 0,4.09375 -0.1,0.8 0.68125,1.60625 1.78125,1.90625 1.5,0.4 2.125,1.275 2.125,3.375 0,1.5 0.5,3.10625 1,3.40625 0.6,0.3 1,1.09375 1,1.59375 0,0.6 -0.40625,0.8 -0.90625,0.5 -0.4,-0.3 -1.71875,0.10625 -2.71875,0.90625 -1.6,1.3 -1.675,1.6 -0.375,2.5 0.9,0.6 0.98125,1 0.28125,1 -0.6,0 -1.38125,1.3 -1.78125,3 -0.7,3.1 -2.5,4.2 -2.5,1.5 0,-2.1 -2.7,-3 -4.5,-1.5 -0.8,0.6 -2.01875,1.01875 -2.71875,0.71875 -0.7,-0.2 -2.50625,-0.125 -3.90625,0.375 -2.5,0.7 -4.875,-0.38125 -4.875,-2.28125 0,-1.5 4.4875,-3.1125 9.6875,-3.3125 6.1,-0.3 7.89375,-1.38125 8.59375,-5.28125 0.4,-1.9 -0.006,-3 -1.40625,-4 -2.1,-1.4 -2.48125,-3.80625 -0.78125,-4.40625 0.6,-0.2 0.19375,-1.2125 -0.90625,-2.3125 -1.7,-1.8 -1.7125,-2.0875 -0.3125,-3.1875 0.9,-0.7125 1.58262,-1.12012 2.0625,-1.1875 z M 375.8125,427.75 c 0.13065,-0.0144 0.25635,-0.0171 0.375,0 0.79102,0.11426 1.28125,0.9375 1.28125,2.375 0,1.8 6.09375,5.09375 9.59375,5.09375 1.8,0.1 1.7938,0.0937 0.0937,1.09375 -1,0.6 -3.2,0.9125 -5,0.8125 -5.2,-0.3 -6.6875,-0.006 -6.6875,1.59375 0,0.9 -1.21875,2.11875 -2.71875,2.71875 -3.8,1.6 -11.10625,1.99375 -11.90625,0.59375 -0.9,-1.4 1.8,-3.0125 3,-1.8125 1.7,1.7 3.51875,1.1 4.21875,-1.5 0.3,-1.4 1.29375,-2.5 2.09375,-2.5 1.9,0 4.1,-2.18125 3.5,-3.78125 -0.2,-0.6 -1.5125,-1.21875 -2.8125,-1.21875 -1.3,0 -2.375,-0.5 -2.375,-1 0,-0.6 0.98125,-1 2.28125,-1 1.2,0 2.91875,-0.40625 3.71875,-0.90625 0.50625,-0.3375 0.95181,-0.51941 1.34375,-0.5625 z m 44.8125,3.5625 c 0.5625,-0.0875 0.84375,0.20625 0.84375,0.90625 0,0.5 1.4,1 3,1 1.9,0 3,0.50625 3,1.40625 0,2.3 -2.21875,3.0875 -3.21875,1.1875 -0.6,-1 -2.2,-1.59375 -4.5,-1.59375 -3.5,0 -3.5875,-0.1 -1.6875,-1.5 1.15,-0.85 2,-1.31875 2.5625,-1.40625 z m -54.03125,0.4375 c 0.375,-0.025 0.6,0.1625 0.75,0.5625 0.2,0.6 -0.3,1.50625 -1,1.90625 -2.2,1.4 -3.38125,-0.1875 -1.28125,-1.6875 0.65,-0.5 1.15625,-0.75625 1.53125,-0.78125 z m 232.5625,1.46875 c 0.17227,0.0211 0.3125,0.26875 0.3125,0.71875 0,0.5 -0.7,1.6875 -1.5,2.6875 -1.2,1.6 -1.81875,1.7125 -2.71875,0.8125 -0.9,-0.9 -0.8,-1.21875 0.5,-1.21875 1,0 2.0125,-0.7 2.3125,-1.5 0.375,-1 0.80664,-1.53516 1.09375,-1.5 z m 91.5625,1.40625 c -0.275,0.0625 -0.50625,0.25 -0.65625,0.5 -0.4,0.5 -0.21875,1.2 0.28125,1.5 0.5,0.4 1.2,0.1875 1.5,-0.3125 0.4,-0.5 0.21875,-1.2 -0.28125,-1.5 -0.25,-0.2 -0.56875,-0.25 -0.84375,-0.1875 z M 297.25,436.21875 c 3.9,0 4.21875,0.21875 4.21875,2.71875 0,1.8 0.9875,3.475 2.6875,4.875 2.3,1.8 2.5,2.41875 1.5,3.71875 -1.2,1.4 -1.5125,1.39375 -3.3125,-0.40625 -1,-1 -1.875,-2.8125 -1.875,-3.8125 0,-1.1 -0.80625,-2.19375 -1.90625,-2.59375 -1,-0.3 -2.59375,-1.4 -3.59375,-2.5 -1.8,-2 -1.71875,-2 2.28125,-2 z m 192.21875,1 c 0.6,0 1,0.7 1,1.5 0,0.8 -0.4,1.5 -1,1.5 -0.5,0 -1,-0.7 -1,-1.5 0,-0.8 0.5,-1.5 1,-1.5 z M 474.25,437.3125 c 2.4,0 5.2125,0.4 6.3125,1 1.4,0.7 1.78125,1.625 1.28125,3.125 -0.3,1.2 -0.075,2.38125 0.625,2.78125 1.3,0.8 0.5,7 -1,7 -1.3,0 -1.80625,-2.29375 -0.90625,-4.59375 0.4,-1.2 0.4875,-2.5125 0.1875,-2.8125 -1,-1 -4.28125,-0.69375 -4.28125,0.40625 0,0.5 -0.7,1 -1.5,1 -2,0 -1.9062,-1.8875 0.0937,-4.1875 1.8,-1.9 1.60625,-2.09375 -3.09375,-3.09375 -1.1,-0.3 -0.11875,-0.525 2.28125,-0.625 z m -122.40625,0.28125 c 0.56348,-0.0478 0.8125,0.90625 1,3.03125 0.4,2.9 -0.475,3.29375 -2.375,1.09375 -1,-1.2 -1,-1.8 0,-3 0.6,-0.7125 1.03691,-1.09629 1.375,-1.125 z M 675.875,437.75 c 1.16719,-0.0188 2.59375,0.64375 2.59375,1.46875 0,0.5 0.58125,1.0125 1.28125,1.3125 0.6,0.2 0.20625,0.2 -1.09375,0 -1.3,-0.2 -2.1,0.10625 -2,0.90625 0.2,0.6 -0.5,1.39375 -1.5,1.59375 -1.5,0.3 -1.8,-0.1 -1.5,-2 0.2,-1.2 0.6875,-2.6 1.1875,-3 0.275,-0.175 0.64219,-0.275 1.03125,-0.28125 z m -230.03125,1.46875 c 0.9,0 1.625,0.4 1.625,1 0,0.5 -0.40625,1 -0.90625,1 -0.6,0 -1.29375,-0.5 -1.59375,-1 -0.3,-0.6 0.075,-1 0.875,-1 z m 256.875,2 c 1.16794,-0.0935 1.44375,1.10625 1.03125,3.71875 -0.5,2.7 -0.30625,3.38125 0.59375,2.78125 1,-0.6 1.125,-0.3 0.125,1.5 -0.6,1.2 -0.925,2.8 -0.625,3.5 0.8,2.3 -1.68125,3.50625 -3.78125,1.90625 -1.7,-1.2 -1.6938,-1.9875 -0.0937,-1.1875 0.2,0.2 1.2,-0.7 2,-2 1.5,-2.1 1.475,-2.4125 -0.625,-5.3125 -1.8,-2.6 -1.88125,-3.3 -0.78125,-4 0.90625,-0.5625 1.62537,-0.86377 2.15625,-0.90625 z m -11.03125,1.3125 c -0.0625,0.075 -0.0375,0.44375 0.0625,1.09375 0.1,1.1 0.91875,2.1125 1.71875,2.3125 1,0.3 1.075,0.19375 0.375,-0.40625 -0.6,-0.4 -1.3875,-1.5125 -1.6875,-2.3125 -0.25,-0.55 -0.40625,-0.7625 -0.46875,-0.6875 z M 544.8125,445.25 c 0.98633,-0.0596 1.65625,0.46875 1.65625,1.46875 0,0.9 -0.725,1.81875 -1.625,2.21875 -2,0.7 -3.79375,-1.80625 -2.09375,-2.90625 0.75,-0.4875 1.4707,-0.74551 2.0625,-0.78125 z m -171.625,0.21875 c 0.7959,-0.0147 1.65625,0.53125 1.96875,1.46875 0.3,0.9 -0.8,0.975 -3.5,0.375 -0.2,-0.1 0.0125,-0.5875 0.3125,-1.1875 0.3,-0.45 0.74121,-0.64746 1.21875,-0.65625 z m -6.71875,0.75 c 1.9,0 2.0875,0.31875 1.1875,1.21875 -0.9,0.9 -1.50625,0.9 -2.40625,0 -0.9,-0.9 -0.68125,-1.21875 1.21875,-1.21875 z m 323.59375,2 c -0.9,0 -1.59375,0.4 -1.59375,1 0,0.5 0.375,1 0.875,1 0.6,0 1.325,-0.5 1.625,-1 0.3,-0.6 -0.10625,-1 -0.90625,-1 z m -219.46875,3.125 c 0.70292,-10e-4 0.875,0.57813 0.875,1.78125 0,2.7 -2.81875,4.7 -4.71875,3.5 -2.2,-1.4 -1.8875,-2.69375 0.8125,-4.09375 1.2375,-0.6375 2.09863,-1.04082 2.6875,-1.15625 0.12268,-0.024 0.24333,-0.031 0.34375,-0.0313 z M 307.75,454.5 c 0.8582,-0.10791 1.71875,1.1875 1.71875,2.8125 0,1 -0.40625,1.90625 -0.90625,1.90625 -1,0 -2.10625,-3.60625 -1.40625,-4.40625 0.1875,-0.1875 0.3957,-0.2876 0.59375,-0.3125 z m 90.4375,1.375 c 0.77148,-0.11328 1.28125,0.53125 1.28125,1.84375 0,1.9 -2.01875,2.91875 -3.21875,1.71875 -0.7,-0.7 -0.5875,-1.5 0.3125,-2.5 0.6,-0.6375 1.16211,-0.99453 1.625,-1.0625 z m -111.3125,0.34375 c -0.7875,0.0756 -1.58125,0.41875 -2.03125,1.09375 -0.7,1.2 1.525,3.125 3.125,2.625 0.6,-0.2 1.08125,-1.1 1.28125,-2 0.25,-1.1875 -1.0625,-1.84473 -2.375,-1.71875 z M 413.40625,457.25 c 0.61523,0.0342 1.0625,0.71875 1.0625,1.96875 0,1.3 -0.5,1.80625 -1.5,1.40625 -1.6,-0.7 -1.9125,-1.6875 -0.8125,-2.6875 0.45,-0.4875 0.88086,-0.70801 1.25,-0.6875 z M 41.125,457.625 c -0.776953,0.0604 -1.80625,0.4 -3.15625,1 -3.3,1.4 -2.61875,2.1 2.28125,2.5 2.8,0.2 3.3,-0.1 3,-1.5 -0.25,-1.4375 -0.830078,-2.10059 -2.125,-2 z m 202,0.71875 c -0.5125,0.0375 -0.9625,0.63125 -1.5625,1.78125 -1.2,2.2 -0.50625,3.09375 2.59375,3.09375 2.6,0 2.80625,-0.68125 0.90625,-3.28125 -0.85,-1.1 -1.425,-1.63125 -1.9375,-1.59375 z m 68.78125,0.21875 c 0.2375,-0.1 0.55625,0.30625 1.15625,1.15625 0.8,1 1.40625,2.21875 1.40625,2.71875 0,0.4 -0.80625,0.78125 -1.90625,0.78125 -1.4,0 -1.7125,-0.5875 -1.3125,-2.6875 0.25,-1.25 0.41875,-1.86875 0.65625,-1.96875 z m 218.15625,0 c -0.36563,-0.0703 -0.59375,0.1125 -0.59375,0.5625 0,0.5 -2.61875,1.8125 -5.71875,2.8125 -3.1,1 -5.8,2.275 -6,2.875 -0.5,1.6 4.79375,3.31875 8.09375,2.71875 2.6,-0.5 4.71875,-2.3125 2.71875,-2.3125 -0.6,0 -1.09375,-0.69375 -1.09375,-1.59375 0,-0.8 0.38125,-1.3 0.78125,-1 0.4,0.2 1.3,-0.40625 2,-1.40625 0.7,-1.2 0.81875,-2.1 0.21875,-2.5 -0.15,-0.075 -0.28437,-0.13281 -0.40625,-0.15625 z m 69.65625,0.0625 c 0.275,-0.0625 0.59375,-0.0125 0.84375,0.1875 0.5,0.3 0.68125,1 0.28125,1.5 -0.3,0.5 -1,0.7125 -1.5,0.3125 -0.5,-0.3 -0.68125,-1 -0.28125,-1.5 0.15,-0.25 0.38125,-0.4375 0.65625,-0.5 z M 445.75,459.21875 c 0.8,0 1.7,0.9 2,2 0.3,1.3 -0.006,2 -0.90625,2 -0.8,0 -1.375,-0.20625 -1.375,-0.40625 0,-0.2 -0.325,-1.1 -0.625,-2 -0.4,-1 -0.0937,-1.59375 0.90625,-1.59375 z m 200.59375,3.1875 c 0.94727,-0.11914 1.125,0.4375 1.125,1.8125 0,1.5 -0.70625,2 -2.40625,2 -3.4,0 -4.20625,-1.80625 -1.40625,-2.90625 1.275,-0.525 2.11914,-0.83477 2.6875,-0.90625 z m -26.6875,2.8125 c 0.7,0 0.7062,0.50625 -0.0937,1.40625 -1.4,1.7 -5.51875,2.59375 -7.21875,1.59375 -0.8,-0.5 -0.5,-1 1,-1.5 1.1,-0.3 2.5,-0.4 3,0 0.5,0.3 1.225,0.1 1.625,-0.5 0.3,-0.5 1.0875,-1 1.6875,-1 z m 14.8125,0.21875 c 1.9,0 2.68125,0.2 1.78125,0.5 -1,0.2 -2.6,0.2 -3.5,0 -1,-0.3 -0.18125,-0.5 1.71875,-0.5 z m 57.3125,0.4375 c 0.25,-0.125 0.5875,0.2625 1.1875,1.0625 1.1,1.4 0.99375,1.875 -0.40625,2.875 -2.1,1.6 -2.3,1.2 -1.5,-2 0.3,-1.2 0.46875,-1.8125 0.71875,-1.9375 z m 5.28125,2.34375 c 0.8,0 1.20625,0.4 0.90625,1 -0.3,0.5 -1.025,1 -1.625,1 -0.5,0 -0.875,-0.5 -0.875,-1 0,-0.6 0.69375,-1 1.59375,-1 z m -172.46875,3.21875 c -0.47461,-5.9e-4 -1.21875,0.2 -2.34375,0.5 -1,0.2 -1.78125,0.78125 -1.78125,1.28125 0,0.4 -0.9,1.0125 -2,1.3125 -2.5,0.6 -2.61875,2.40625 -0.21875,2.90625 2.7,0.6 7.21875,-2.1125 7.21875,-4.3125 0,-1.1875 -0.084,-1.68652 -0.875,-1.6875 z m 11.9375,0 c -0.47754,0.0258 -1.19375,0.2 -2.28125,0.5 -2.2,0.6 -3.08125,3.175 -1.28125,3.875 1.8,0.7 4.5,-1.2875 4.5,-3.1875 0,-0.875 -0.1416,-1.23047 -0.9375,-1.1875 z m -25.625,0.3125 c -0.97852,0.0721 -1.85625,0.33125 -2.15625,0.78125 -0.9,1.5 1.1,2.69375 3.5,2.09375 1.2,-0.4 2.21875,-1.1125 2.21875,-1.8125 0,-0.8125 -1.93164,-1.18262 -3.5625,-1.0625 z m -465,2.5 c 0.775,0.05 1.6625,0.4125 2.0625,1.0625 0.4,0.6 0.4875,1.2 0.1875,1.5 -0.7,0.7 -3.6875,-0.6875 -3.6875,-1.6875 0,-0.65 0.6625,-0.925 1.4375,-0.875 z m 161.5625,1.125 c 0.44177,-0.13364 1.775,0.275 4.09375,1.0625 3.5,1.2 4.90625,2.4 4.90625,4.5 0,2.3 -2.70625,1.38125 -6.40625,-2.21875 -2.25,-2.1375 -3.16174,-3.17192 -2.59375,-3.34375 z M 17.75,476.21875 c -0.614258,-0.0117 -1.03125,0.84375 -0.78125,2.21875 0.7,3.5 2.075,4.18125 5.375,2.78125 3.9,-1.6 4.01875,-3 0.21875,-3 -1.7,0 -3.29375,-0.5 -3.59375,-1 -0.4125,-0.675 -0.850195,-0.99297 -1.21875,-1 z m 212.59375,2 c 1.2,0 2.125,0.4 2.125,1 0,0.5 -0.60625,1 -1.40625,1 -0.8,0 -1.79375,-0.5 -2.09375,-1 -0.3,-0.6 0.275,-1 1.375,-1 z m 412,6.09375 c 0.18418,-0.0208 0.35,-0.0125 0.5,0 2.1,0 2.125,0.0188 0.125,1.21875 -1,0.7 -3.21875,2.40625 -4.71875,3.90625 -1.5,1.4 -2.78125,2.3875 -2.78125,2.1875 0,-0.3 -1.21875,0.6 -2.71875,2 -1.5,1.4 -3,2.3 -3.5,2 -0.4,-0.3 -0.78125,0.4 -0.78125,1.5 0,1.2 0.5,2.09375 1,2.09375 0.6,0 1,0.6125 1,1.3125 0,2.1 -12.025,3.79375 -14.125,2.09375 -0.8,-0.8 -2,-1.40625 -2.5,-1.40625 -0.5,0 -0.99375,-0.9 -1.09375,-2 -0.1,-1.1 0.4125,-2 1.3125,-2 0.8,0 1.40625,-0.5 1.40625,-1 0,-0.6 0.78125,-0.98125 1.78125,-0.78125 1.1,0.2 1.60625,-0.3 1.40625,-1.5 -0.3,-1.6 0.79375,-2.1125 3.59375,-1.8125 2.1,0.3 11.29375,-3.09375 15.09375,-5.59375 1.6625,-1.1375 3.71074,-2.07297 5,-2.21875 z M 12.5625,486.375 c 0.09718,-0.011 0.202705,-0.005 0.3125,0 0.117114,0.005 0.24375,0.0375 0.375,0.0625 0.9,0.2 1.8,1.29375 2,2.59375 0.4,2.4 -0.69375,2.9 -2.59375,1 -1.582031,-1.58203 -1.551486,-3.49183 -0.09375,-3.65625 z m 577.03125,4.59375 c 0.35391,0.0299 0.85,0.225 1.5625,0.5625 1.3,0.6 2.19375,1.50625 2.09375,1.90625 -0.2,0.5 -0.69375,0.875 -1.09375,0.875 -0.4,-0.1 -1.29375,-0.0937 -2.09375,-0.0937 -0.8,0 -1.4125,-0.80625 -1.3125,-1.90625 0.0625,-1 0.25391,-1.39355 0.84375,-1.34375 z M 164.8125,493.25 c 0.15436,-0.008 0.29431,-0.0129 0.4375,0 0.6873,0.0621 1.21875,0.36875 1.21875,0.96875 0,0.5 0.78125,0.99375 1.78125,1.09375 0.9,0 0.41875,0.5 -1.28125,1 -3.7,1.1 -5.70625,0.50625 -4.90625,-1.59375 0.38281,-0.875 1.66951,-1.41489 2.75,-1.46875 z m -57.625,5.125 c 0.42656,-0.0172 0.9375,0.0125 1.5625,0.0625 2.4,0.2 3.21875,0.7875 3.21875,2.1875 0,1.1 -0.61875,2.1125 -1.21875,2.3125 -0.7,0.3 -1.28125,-0.025 -1.28125,-0.625 0,-0.6 -0.9,-1.09375 -2,-1.09375 -1.1,0 -2,-0.69375 -2,-1.59375 0,-0.825 0.43906,-1.19844 1.71875,-1.25 z m -97.53125,0.46875 c -0.6943359,-0.0158 -1.1875,0.21875 -1.1875,0.78125 0,0.6 0.9,1.70625 2,2.40625 2.5,1.5 4.6,0.5875 3,-1.3125 -0.9375,-1.125 -2.655273,-1.84863 -3.8125,-1.875 z m 585.28125,5.6875 c 0.89062,-0.0219 1.85625,-0.025 2.90625,0 4.1,0.1 7.20625,0.50625 6.90625,0.90625 -0.2,0.5 -2.00625,0.78125 -3.90625,0.78125 -2,0 -3.375,0.51875 -3.375,1.21875 0,0.9 -0.31875,0.9 -1.21875,0 -0.7,-0.7 -2.2,-1.21875 -3.5,-1.21875 -1.3,0 -2.28125,-0.4 -2.28125,-1 0,-0.375 1.79687,-0.62187 4.46875,-0.6875 z m -494.34375,1.6875 c 0.15842,-0.01 0.35,0 0.5625,0 1,0 2.4,0.9 3,2 1.9,2.9 0.10625,3.20625 -2.59375,0.40625 -1.837498,-1.925 -2.077709,-2.33669 -0.96875,-2.40625 z m 15.6875,3.28125 c 0.71719,0 1.1,0.0875 0.875,0.3125 -0.8,0.8 -4.8125,1.325 -4.3125,0.625 0.2,-0.4 1.425,-0.80625 2.625,-0.90625 0.3,-0.025 0.57344,-0.0313 0.8125,-0.0313 z m 4.96875,2.0625 c 0.89844,-0.0576 1.59375,0.375 1.90625,1.25 0.1,0.5 -0.1875,1.60625 -0.6875,2.40625 -0.8,1.3 -1.21875,1.31875 -2.71875,-0.28125 -1.6,-1.5 -1.58125,-1.91875 -0.28125,-2.71875 0.6375,-0.4125 1.24219,-0.62168 1.78125,-0.65625 z m 551.3125,1.65625 c 0.5,0 0.90625,0.4 0.90625,1 0,0.5 -0.725,1 -1.625,1 -0.8,0 -1.175,-0.5 -0.875,-1 0.3,-0.6 0.99375,-1 1.59375,-1 z m 16.6875,2 c 3.1,0 4.2125,0.30625 3.3125,0.90625 -0.8,0.5 -1.1125,1.6 -0.8125,2.5 0.4,1 -0.1875,2.0125 -1.6875,2.8125 -1.9,1.1 -2.2,1.69375 -1.5,3.59375 0.7,1.9 1.18125,2.0875 2.78125,1.1875 3.1,-1.6 5.125,-1.2 5.125,1 0,2 -0.51875,2.10625 -11.21875,1.90625 -6.2,-0.1 -12.38125,-0.59375 -13.78125,-1.09375 -2.5,-0.9 -2.5,-1.00625 -0.5,-2.40625 2,-1.5 1.9938,-1.5 0.0937,-3 -1.9,-1.4 -1.9,-1.39375 0.5,-1.59375 1.3,0 2.9875,-0.0937 3.6875,-0.0937 0.6,0.1 1.21875,-0.3125 1.21875,-0.8125 0,-0.5 1.18125,-0.90625 2.78125,-0.90625 1.6,0 3.2,-0.8 4,-2 0.9,-1.5 2.3,-2 6,-2 z m -29.59375,0.625 c 1.81975,0.009 3.81562,0.1125 5.8125,0.28125 2.8,0.3 -1.7,2.2 -7,3 -4.6,0.7 -7,0 -7,-2 0,-0.6875 2.68262,-1.15332 6.4375,-1.25 0.56323,-0.0145 1.14342,-0.0344 1.75,-0.0313 z m -39.0625,4.375 c 0.18297,-0.0146 0.3623,-0.009 0.5625,0 0.96094,0.0451 2.1125,0.3625 3.3125,1 1.2,0.6 1.68125,1.59375 1.28125,2.59375 -0.5,1.3 0.0125,1.5125 2.3125,1.3125 1.8,-0.2 4.4,0.6125 6.5,1.8125 2.8,1.8 4.80625,2.2 10.40625,2 3.9,-0.1 7.29375,-0.5 7.59375,-1 0.4,-0.5 1.60625,-0.41875 2.90625,0.28125 1.2,0.6 3.09375,1.01875 4.09375,0.71875 1,-0.3 1.90625,-0.1 1.90625,0.5 0,0.6 1.475,0.68125 3.875,0.28125 3.5,-0.6 4.1,-0.39375 6,2.40625 1.6,2.2 2.925,2.90625 5.125,2.90625 1.7,-0.1 3,-0.50625 3,-0.90625 0,-0.5 0.78125,-0.79375 1.78125,-0.59375 2.4,0.4 6.70625,3.48125 5.90625,4.28125 -0.4,0.4 -1.29375,0.2 -2.09375,-0.5 -0.7,-0.6 -3.81875,-1.1 -6.71875,-1 -7.7,0.2 -14.0875,-0.975 -16.1875,-2.875 -2.2,-2 -13.79375,-2.2125 -16.09375,-0.3125 -1,0.8 -1.59375,0.8938 -2.09375,0.0937 -0.8,-1.2 -5.50625,-1.2938 -7.40625,-0.0937 -0.8,0.5 -1.1125,1.6 -0.8125,2.5 0.5,1.3 -0.18125,1.59375 -4.28125,1.59375 -3.8,0 -5,-0.4 -5,-1.5 0,-0.8 0.69375,-1.5 1.59375,-1.5 2.6,0 5.38125,-2.00625 4.78125,-3.40625 -0.4,-1.1 -2.475,-1.3 -9.375,-1 -5.3,0.2 -9.1,0.006 -9.5,-0.59375 -0.3,-0.6 0.075,-1.09375 0.875,-1.09375 0.9,-0.1 2.125,-0.30625 2.625,-0.40625 0.6,-0.1 1.38125,-0.30625 1.78125,-0.40625 0.5,0 0.90625,-0.79375 0.90625,-1.59375 0,-0.8 -0.40625,-1.5 -0.90625,-1.5 -0.4,0 -0.78125,-0.9 -0.78125,-2 0,-1.20313 0.84422,-1.89756 2.125,-2 z m -347.25,1 c -0.5,0 -0.875,0.4 -0.875,1 0,0.5 0.69375,1 1.59375,1 0.8,0 1.20625,-0.5 0.90625,-1 -0.3,-0.6 -1.025,-1 -1.625,-1 z M 764.6875,522.375 c 0.0896,-0.009 0.16602,-0.0132 0.25,0 0.40313,0.0633 0.75,0.375 1.125,0.9375 0.8,1.3 -1.3,2.90625 -4,2.90625 -1.9,0 -1.9,-0.006 0,-1.90625 1.20312,-1.25781 1.99759,-1.87261 2.625,-1.9375 z m -81.9375,0.9375 c -0.66094,0.0603 -1.4,0.325 -2.1875,0.8125 -1,0.7 -0.8,1.2 1,2.5 2.6,1.7 4.59375,0.6875 3.59375,-1.8125 -0.4375,-1.125 -1.30469,-1.60059 -2.40625,-1.5 z m 19.96875,0.59375 c 1.45508,0.006 2.75,0.71875 2.75,1.90625 0,0.9 -1.2,1.40625 -3.5,1.40625 -3.9,0 -4.3125,-0.7 -1.8125,-2.5 0.75,-0.5625 1.68945,-0.81602 2.5625,-0.8125 z m -91.6875,0.25 c 1.33625,0.0236 2.4375,0.5125 2.4375,1.5625 0,0.8 -0.60625,1.5 -1.40625,1.5 -0.8,0 -1.6,0.7 -2,1.5 -0.6,1.7 -3.19375,2 -4.09375,0.5 -0.3,-0.5 -0.1,-1.9 0.5,-3 0.73125,-1.35 2.84446,-2.09282 4.5625,-2.0625 z m 175.125,3.4375 c 0.8125,0.0125 1.3125,0.29375 1.3125,0.84375 0,0.4 -1.51875,0.7875 -3.21875,0.6875 -2.6,0 -2.88125,-0.2125 -1.28125,-0.8125 1.25,-0.5 2.375,-0.73125 3.1875,-0.71875 z M 600.875,529.375 c 1.00293,-0.0293 1.78125,0.40625 2.59375,1.34375 1.6,1.9 0.3875,3.59375 -2.3125,3.09375 -1.2,-0.3 -2.50625,-0.5 -2.90625,-0.5 -1.3,-0.1 -0.9,-2.875 0.5,-3.375 0.825,-0.3375 1.52324,-0.54492 2.125,-0.5625 z m -439.15625,0.9375 c 0.175,0 0.33125,0.2625 0.53125,0.8125 0.2,0.7 0.1125,1.5125 -0.1875,1.8125 -1,1 -1.9,-0.5125 -1,-1.8125 0.3,-0.55 0.48125,-0.8125 0.65625,-0.8125 z m 557.4375,0.375 c 1.8125,-0.0375 4.5625,0.4375 8.3125,1.4375 3.1,0.8 2.58125,0.9 -3.71875,1 -4,0.1 -7.28125,-0.3125 -7.28125,-0.8125 0,-1.05 0.875,-1.5875 2.6875,-1.625 z m -526.09375,0.53125 c 1.4,0 2.30625,0.4 1.90625,1 -0.3,0.5 -1.525,1 -2.625,1 -1,0 -1.875,-0.5 -1.875,-1 0,-0.6 1.19375,-1 2.59375,-1 z m 24.78125,0.1875 c 0.55,0 0.475,0.2625 0.125,0.8125 -0.3,0.5 -2.1125,0.90625 -3.8125,0.90625 l -3.1875,-0.0937 3,-0.8125 c 2.15,-0.55 3.325,-0.8125 3.875,-0.8125 z M 747.3125,532.25 c 0.70898,0.009 1.60625,0.1875 2.65625,0.5625 1.3,0.5 1.38125,0.8 0.28125,1.5 -2.1,1.4 -4.78125,1.00625 -4.78125,-0.59375 0,-1 0.66211,-1.48437 1.84375,-1.46875 z m -130,0.375 c 0.0846,0.01 0.175,0.0501 0.25,0.0937 0.5,0.4 0.90625,1.4 0.90625,2.5 0,2 -2.6,3.5 -3.5,2 -0.7,-1.1375 0.87969,-4.26719 2.09375,-4.5625 0.0867,-0.0211 0.16543,-0.0412 0.25,-0.0313 z m -475.09375,0.65625 c 0.7625,0.0375 1.4,0.38125 1.75,1.03125 1,1.5 0.3875,1.81875 -2.8125,1.21875 -2.1,-0.4 -2.5,-0.80625 -1.5,-1.40625 0.9,-0.6 1.8,-0.88125 2.5625,-0.84375 z m 139.3125,0.375 c 0.91738,0.007 2.1375,2.5125 1.4375,3.5625 -0.3,0.6 -1.025,1 -1.625,1 -1,0 -1.1875,-3.30625 -0.1875,-4.40625 0.1125,-0.1125 0.24395,-0.15723 0.375,-0.15625 z m -101.34375,0.0313 c 0.16406,0.0141 0.31875,0.05 0.46875,0.125 0.6,0.4 0.6062,1.01875 -0.0937,1.71875 -1.3,1.3 -2.59375,0.28125 -1.59375,-1.21875 0.225,-0.45 0.72656,-0.66719 1.21875,-0.625 z m -26.59375,1.90625 c 0.33496,-0.085 0.71875,0.0937 1.15625,0.53125 0.6,0.6 0.80625,1.2875 0.40625,1.6875 -0.9,0.9 -2.79375,-0.58125 -2.09375,-1.78125 0.15,-0.225 0.33027,-0.38652 0.53125,-0.4375 z m 9.125,0.65625 c 0.41631,0.012 0.75,0.45625 0.75,1.375 0,1.7 4.075,2.89375 5.375,1.59375 1.4,-1.4 6.925,-1.3062 6.125,0.0937 -0.4,0.5 -1.2125,0.825 -1.8125,0.625 -0.7,-0.2 -1.8,0.2 -2.5,1 -1.2,1.1 -4.0875,1.5 -10.6875,1.5 -4,0 -5.5,-0.31875 -5.5,-1.21875 0,-0.6 1.39375,-1 3.09375,-1 2.2,0 3.19375,-0.5 3.59375,-2 0.3375,-1.29375 1.02725,-1.98413 1.5625,-1.96875 z m 506.3125,2.0625 c 0.14531,-0.008 0.33125,0.05 0.53125,0.125 0.7,0.2 1.4875,0.9875 1.6875,1.6875 0.3,0.8 -0.10625,1.20625 -0.90625,0.90625 -0.7,-0.2 -1.4875,-1.01875 -1.6875,-1.71875 -0.225,-0.6 -0.0609,-0.97656 0.375,-1 z m -529.1875,0.90625 c 1.4,0 2.625,0.20625 2.625,0.40625 0,0.9 -4.025,1.3 -4.625,0.5 -0.3,-0.5 0.6,-0.90625 2,-0.90625 z m 130.84375,0.1875 c 0.3,0 0.71875,0.375 1.46875,1.125 1.6,1.6 1.6125,1.79375 -0.1875,3.09375 -1.8,1.3 -2.0125,1.3 -2.3125,0 -0.2,-0.8 -0.0875,-2.19375 0.3125,-3.09375 0.25,-0.75 0.41875,-1.125 0.71875,-1.125 z m 98.21875,1.4375 c 0.32813,0.0141 0.70625,0.0875 1.15625,0.1875 1.9,0.3 2.1875,0.68125 1.1875,1.28125 -2,1.3 -3.78125,1.1 -3.78125,-0.5 0,-0.675 0.45313,-1.01094 1.4375,-0.96875 z m -186.8125,0.78125 c 0.11719,-0.009 0.25,0.0187 0.375,0.0937 0.6,0.3 1,1.5 1,2.5 0,1 -0.7,2.50625 -1.5,3.40625 -0.8,0.8 -1.5,1.99375 -1.5,2.59375 0,0.6 -0.5,0.8 -1,0.5 -0.6,-0.4 -0.8,-1 -0.5,-1.5 0.3,-0.5 -0.6,-1.19375 -2,-1.59375 -1.6,-0.4 -2.5,-1.29375 -2.5,-2.59375 0,-1.8 0.4,-1.90625 3.5,-1.40625 2.8,0.6 3.5,0.39375 3.5,-0.90625 0,-0.675 0.27344,-1.06562 0.625,-1.09375 z m -71.9375,1.84375 c -0.8625,-0.05 -1.7,0.35 -2,1.25 -0.5,1.1 0.006,1.5 1.90625,1.5 1.6,0 2.3875,-0.48125 2.1875,-1.28125 -0.35,-0.9 -1.23125,-1.41875 -2.09375,-1.46875 z m 174.96875,2.9375 c 0.43237,-0.0832 1.23125,0.24375 2.71875,0.8125 3.1,1.1 3.425,3 0.625,3 -1.1,0 -2,0.4 -2,1 0,2.5 -1.51875,0.7 -1.71875,-2 -0.1125,-1.9125 -0.18091,-2.70549 0.375,-2.8125 z m 419.9375,0.3125 c 0.69824,0.0439 1.40625,0.65625 1.40625,1.59375 0,1.2 -4.7,1.2062 -5.5,-0.0937 -0.3,-0.5 -0.0187,-0.70625 0.78125,-0.40625 0.8,0.3 1.81875,0 2.21875,-0.5 0.2625,-0.45 0.6748,-0.62012 1.09375,-0.59375 z m -10.3125,0.5937 c 0.4,0 1.0125,0.60625 1.3125,1.40625 0.4,0.8 1.5,1.5 2.5,1.5 2.5,0 2.5,3.11875 0,5.21875 -1.3,1.1 -1.80625,2.3875 -1.40625,3.6875 0.4,1.5 0.10625,2.09375 -1.09375,2.09375 -0.9,0 -1.59375,-0.80625 -1.59375,-1.90625 0,-2.7 -1.01875,-5.09375 -2.21875,-5.09375 -0.5,0 -1.78125,1.01875 -2.78125,2.21875 -1.6,2.1 -1.80625,2.1 -3.40625,0.5 -2,-1.9 -3.3125,-2.21875 -3.8125,-0.71875 -0.2,0.6 -2.2,1.29375 -4.5,1.59375 -3.6,0.4 -4.1875,0.20625 -3.6875,-1.09375 0.6,-1.4 1.7875,-1.89375 3.6875,-1.59375 0.4,0.1 1.0125,-0.60625 1.3125,-1.40625 0.4,-0.8 1.5,-1.5 2.5,-1.5 1,0 2.80625,-0.78125 3.90625,-1.78125 1.7,-1.4 3.88125,-2.225 9.28125,-3.125 z m 19.03125,3.3125 c 0.7875,-0.0234 1.6875,0.7125 1.6875,1.6875 0,0.5 -0.7,0.90625 -1.5,0.90625 -1.5,0 -2.00625,-1.18125 -0.90625,-2.28125 0.2,-0.2 0.45625,-0.30469 0.71875,-0.3125 z m -486.8125,0.59375 c 0.8,0 1.5,0.4 1.5,1 0,0.5 -0.7,1 -1.5,1 -0.8,0 -1.5,-0.5 -1.5,-1 0,-0.6 0.7,-1 1.5,-1 z m -50.25,1.03125 c 0.15,0 0.2375,0.43125 0.4375,1.28125 0.3,1 0.2062,2.10625 -0.0937,2.40625 -1.1,1.1 -1.89375,-0.60625 -1.09375,-2.40625 0.4,-0.85 0.6,-1.28125 0.75,-1.28125 z m 100.5,2.5625 c 1.6543,-0.22695 2.325,1.1875 1.625,3.8125 -0.7,3.1 -1.39375,3.1875 -3.59375,0.6875 -1.7,-2 -1.28125,-3.48125 1.21875,-4.28125 0.275,-0.1 0.51367,-0.18633 0.75,-0.21875 z m 389.6875,0.40625 c 0.69258,-0.008 1.76875,0.18125 3.34375,0.59375 3,0.8 2.81875,3.40625 -0.28125,3.40625 -1.4,0 -2.9,-0.8 -3.5,-2 -0.75,-1.375 -0.7168,-1.9873 0.4375,-2 z m -438.84375,1 c 0.8,0 1.20625,0.4 0.90625,1 -0.3,0.5 -1.025,1 -1.625,1 -0.5,0 -0.875,-0.5 -0.875,-1 0,-0.6 0.69375,-1 1.59375,-1 z m -4.125,5.5625 c 0.82031,-0.12012 1.53125,0.40625 1.53125,1.53125 0,0.5 -1.025,0.90625 -2.125,0.90625 -1.8,0 -1.875,-0.2 -0.875,-1.5 0.45,-0.5625 0.97656,-0.86543 1.46875,-0.9375 z m 492.59375,2.0625 c 1.59375,-0.10312 1.76875,0.65 0.71875,2.375 -0.9,1.5 -0.9938,2.19375 -0.0937,3.09375 1.8,1.8 -0.40625,6.8 -3.40625,7.5 -3.4,0.9 -5.5,-1.29375 -3,-3.09375 1.4,-1 1.8,-2.39375 1.5,-5.09375 -0.2,-3.4 0.0187,-3.90625 2.21875,-4.40625 0.85,-0.225 1.53125,-0.34063 2.0625,-0.375 z m -544.03125,0.5 c 0.21094,-0.0141 0.6125,0.15 1.0625,0.375 0.6,0.4 0.8,1.3 0.5,2 -0.2,0.7 0.4,2.39375 1.5,3.59375 2.4,2.8 2.1,4.1 -1.5,5 l -2.71875,0.8125 0.5,-5.6875 c 0.3,-3.1 0.5,-5.8 0.5,-6 0.025,-0.05 0.0859,-0.0892 0.15625,-0.0937 z m 322.53125,3.3125 c 0.16406,-0.0313 0.3125,-0.0125 0.4375,0.0625 0.6,0.4 0.48125,1.4 -0.21875,2.5 -1.6,2.4 -3.08125,1.50625 -1.78125,-1.09375 0.45,-0.825 1.07031,-1.375 1.5625,-1.46875 z m -99.96875,8.5625 c 0.2,0 0.40625,0.7 0.40625,1.5 0,0.8 -0.725,1.5 -1.625,1.5 -1.4,0 -1.375,-0.3 -0.375,-1.5 0.7,-0.8 1.39375,-1.5 1.59375,-1.5 z m 39.28125,3 c 1.1,0 2.325,0.4 2.625,1 0.4,0.6 -0.50625,1 -1.90625,1 -1.4,0 -2.59375,-0.5 -2.59375,-1 0,-0.6 0.875,-1 1.875,-1 z M 493,582.28125 c 0.13125,-0.0187 0.29375,-0.0187 0.46875,0.0313 0.6,0.3 1.09375,0.81875 1.09375,1.21875 -0.1,1.2 -1.50625,0.89375 -1.90625,-0.40625 -0.225,-0.45 -0.05,-0.7875 0.34375,-0.84375 z m -323.375,14.625 c 0.5625,0.0625 1.13125,0.58125 1.53125,1.53125 0.7,1.9 -1.8125,3.81875 -2.8125,2.21875 -0.4,-0.6 -0.4875,-1.7 -0.1875,-2.5 0.35,-0.9 0.90625,-1.3125 1.46875,-1.25 z m 528.65625,9.375 c 0.5625,-0.0625 1.11875,0.35 1.46875,1.25 0.3,0.8 0.2125,1.9 -0.1875,2.5 -1,1.6 -3.5125,-0.31875 -2.8125,-2.21875 0.4,-0.95 0.96875,-1.46875 1.53125,-1.53125 z m -198.71875,1.9375 c 0.5,0 0.90625,0.4 0.90625,1 0,0.5 -0.725,1 -1.625,1 -0.8,0 -1.175,-0.5 -0.875,-1 0.3,-0.6 0.99375,-1 1.59375,-1 z m -12.78125,5.5 c 1.32066,0.062 1.50469,1.06719 0.96875,3.59375 -0.4,2.1 -0.0875,3.4 0.8125,4 1.1,0.6 1.0875,1.1 0.1875,2 -0.6,0.6 -0.89375,1.8 -0.59375,2.5 0.3,0.8 -0.0937,1.40625 -1.09375,1.40625 -0.9,0 -1.59375,-0.69375 -1.59375,-1.59375 0,-0.8 -0.525,-1.2125 -1.125,-0.8125 -0.8,0.4 -0.875,-0.0937 -0.375,-1.59375 0.5,-1.5 0.175,-2.59375 -0.625,-3.09375 -1.1,-0.8 -1,-1.20625 0.5,-2.40625 1.1,-0.8 1.4125,-1.5 0.8125,-1.5 -1.9,0 -1.40625,-1.78125 0.59375,-2.28125 0.3375,-0.075 0.63555,-0.15566 0.90625,-0.1875 0.23687,-0.0279 0.43633,-0.04 0.625,-0.0313 z m 166.09375,10.875 c 0.3375,0.025 0.73125,0.3375 1.28125,0.9375 0.9,0.8 1.3875,1.99375 1.1875,2.59375 -0.3,0.8 -0.98125,0.8125 -2.28125,-0.1875 -1.2,-0.8 -1.59375,-1.925 -1.09375,-2.625 0.3,-0.5 0.56875,-0.74375 0.90625,-0.71875 z m 5.75,0.125 c 0.33281,0.0703 1.1125,0.9625 1.9375,2.3125 1.8,2.7 1.88125,3.48125 0.78125,4.78125 -1.1,1.4 -1.2875,1.4062 -2.1875,-0.0937 -0.5,-1 -0.3875,-2.1 0.3125,-3 0.7,-0.9 0.8,-1.5 0,-2 -0.5,-0.3 -1,-1.18125 -1,-1.78125 0,-0.175 0.0453,-0.24219 0.15625,-0.21875 z m 8.46875,1.09375 c 0.87402,-0.0996 1.5,0.4375 0.875,1.5 -0.4,0.5 -1.31875,0.90625 -2.21875,0.90625 -1.3,0 -1.28125,-0.3 -0.28125,-1.5 0.4875,-0.5625 1.10059,-0.84648 1.625,-0.90625 z m -181.84375,2.5 c 1,-0.1 1,0.2 0,1.5 -0.7,0.8 -2,2.325 -3,3.125 -1.6,1.6 -1.39375,4.28125 0.40625,4.28125 0.5,0 0.70625,-0.40625 0.40625,-0.90625 -0.3,-0.4 0.10625,-1.6875 0.90625,-2.6875 1,-1.4 1.7,-1.6125 2.5,-0.8125 1.1,1.1 0.39375,4.40625 -0.90625,4.40625 -0.4,0 -0.69375,1.21875 -0.59375,2.71875 0.1,1.6 -0.0188,2 -0.21875,1 -0.5,-2.1 -1.28125,-2.10625 -3.78125,-0.40625 -2,1.5 -1.20625,4.18125 1.09375,3.28125 0.7,-0.3 1.60625,-0.0937 1.90625,0.40625 0.4,0.6 0.19375,1 -0.40625,1 -0.6,0 -0.80625,1.9 -0.40625,5 0.3,2.7 0.2125,5 -0.1875,5 -1.7,0 -4.3125,-3.19375 -3.8125,-4.59375 0.7,-1.8 -2.3,-2.99375 -4,-1.59375 -1.5,1.3 -4.0125,-0.0187 -4.3125,-2.21875 -0.2,-1.2 0.125,-1.275 1.625,-0.375 3.2,2 4.575,0.39375 4.875,-5.40625 0.3,-8 0.6,-9.10625 2.5,-9.40625 1,-0.1 2.10625,-0.6 2.40625,-1 0.4,-0.4 -0.1,-0.3938 -1,-0.0937 -1,0.4 -1.78125,0.1875 -1.78125,-0.3125 0,-0.8 2.18125,-1.50625 5.78125,-1.90625 z m 178.09375,4.90625 c 0.6,0 1.325,0.4 1.625,1 0.3,0.5 -0.10625,1 -0.90625,1 -0.9,0 -1.59375,-0.5 -1.59375,-1 0,-0.6 0.375,-1 0.875,-1 z m 27.0625,1.09375 c -0.675,0.0625 -1.64375,0.775 -2.84375,2.125 -1.1,1.1 -1.8,2.475 -1.5,2.875 0.8,1.4 5.40625,-1.28125 5.40625,-3.28125 0,-1.2 -0.3875,-1.78125 -1.0625,-1.71875 z m -491.5625,2.375 c 1.63992,-0.1498 4.59375,0.9875 5,2.125 0.6,1.6 -2.99375,3.51875 -5.09375,2.71875 -1.3,-0.5 -1.78125,-3.5 -0.78125,-4.5 0.1875,-0.1875 0.49656,-0.30918 0.875,-0.34375 z m 428.5,1.5625 c 0.55131,0.0229 1.07813,0.5 1.40625,1.375 0.4,1 -0.006,1.20625 -1.40625,0.90625 -1,-0.3 -1.58125,-0.90625 -1.28125,-1.40625 0.3,-0.4875 0.65391,-0.77285 1.03125,-0.84375 0.0786,-0.0148 0.17124,-0.0344 0.25,-0.0313 z m 17.71875,2.375 c 0.12188,-0.0266 0.25625,-0.006 0.40625,0.0937 0.5,0.3 0.68125,1.2 0.28125,2 -0.7,2.1 -1.28125,1.90625 -1.28125,-0.59375 0,-0.825 0.22812,-1.42031 0.59375,-1.5 z m 16.5,2.59375 c 1.1,0 1.70625,0.4 1.40625,1 -0.3,0.5 -1.325,1 -2.125,1 -0.8,0 -1.375,-0.5 -1.375,-1 0,-0.6 0.89375,-1 2.09375,-1 z m 6.28125,0.0313 c 0.75,-0.1 1.6,0.175 2,0.875 0.4,0.5 0.3,1.6 0,2.5 -0.5,1.3 -0.9,1.4 -2,0.5 -0.8,-0.6 -1.375,-1.8 -1.375,-2.5 0,-0.8 0.625,-1.275 1.375,-1.375 z m -5.71875,7 c 0.13535,-0.0281 0.27813,-0.0219 0.40625,0 0.5125,0.0875 0.9375,0.575 0.9375,1.375 0,0.8 -0.5,1.79375 -1,2.09375 -1.4,0.8 -5,-0.3875 -5,-1.6875 0,-0.5 0.7,-0.8 1.5,-0.5 0.8,0.4 1.7,0.1875 2,-0.3125 0.3375,-0.5625 0.7502,-0.88437 1.15625,-0.96875 z m -18.46875,0.28125 c 0.6125,0.025 1.2,0.50625 1.5,1.40625 0.2,0.6 -0.4125,1.2875 -1.3125,1.6875 -2.1,0.8 -2.58125,0.2875 -1.78125,-1.8125 0.35,-0.9 0.98125,-1.30625 1.59375,-1.28125 z m -180.09375,0.6875 c 0.6,0 0.89375,0.60625 0.59375,1.40625 -0.3,0.8 -0.3062,1.69375 0.0937,2.09375 0.3,0.3 0.7125,1.7 0.8125,3 0.1,2 -0.2125,2.30625 -1.3125,1.40625 -1.6,-1.4 -1.7875,-7.90625 -0.1875,-7.90625 z m 128.5,0 c 0.2,0 0.40625,0.7 0.40625,1.5 0,0.8 -0.725,1.5 -1.625,1.5 -1.4,0 -1.375,-0.3 -0.375,-1.5 0.7,-0.8 1.39375,-1.5 1.59375,-1.5 z m -118.78125,0.9062 c 0.60645,0.0606 1.0625,0.875 0.6875,2 -0.4,1.3 -0.006,2.30625 1.09375,2.90625 1.2,0.7 1.50625,1.69375 0.90625,4.09375 -0.4,1.8 -1.2125,3.0125 -1.8125,2.8125 -1.2,-0.4 -2.8,-9.5 -2,-11 0.3375,-0.6 0.76113,-0.84883 1.125,-0.8125 z m 176.1875,4.09375 c 0.6,0 0.975,0.61875 0.875,1.21875 0,0.7 -0.375,2.18125 -0.875,3.28125 -0.7,1.7 -0.90625,1.51875 -0.90625,-1.28125 -0.1,-1.7 0.40625,-3.21875 0.90625,-3.21875 z m -72.125,15.0625 c 0.4875,-0.1125 1.05625,0.49375 1.40625,1.84375 0.3,1.2 -0.10625,2.2 -0.90625,2.5 -1,0.4 -1.375,-0.20625 -1.375,-1.90625 0,-1.5 0.3875,-2.325 0.875,-2.4375 z m 8,3.9375 c 0.6,0 1.325,0.4 1.625,1 0.3,0.5 -0.10625,1 -0.90625,1 -0.9,0 -1.59375,-0.5 -1.59375,-1 0,-0.6 0.375,-1 0.875,-1 z"
       id="path4677"
       inkscape:connector-curvature="0" />
  </g>
</svg>
